<?xml version="1.0" encoding="UTF-8"?><svg id="Layer_1" xmlns="http://www.w3.org/2000/svg" viewBox="0 0 1650 400"><defs><style>.cls-1{fill:#091717;}.cls-2{fill:none;stroke:#091717;stroke-miterlimit:10;stroke-width:10px;}</style></defs><path class="cls-1" d="m817.88,120.42h12.13v24.78h-15.69c-12.3,0-21.47,2.94-27.54,8.81-6.05,5.88-9.09,15.52-9.09,28.92v81.23h-24.78V120.97h24.78v22.85c0,1.28.65,1.93,1.93,1.93.73,0,1.28-.18,1.66-.55s.73-1.1,1.11-2.21c4.77-15.04,16.62-22.58,35.53-22.58h-.02Zm161.89,30.7c6.5,11.47,9.78,25.3,9.78,41.44s-3.25,29.97-9.78,41.44c-6.53,11.47-14.96,20.05-25.34,25.75-10.37,5.7-21.53,8.54-33.46,8.54-23.5,0-40.02-9.37-49.57-28.1-.73-1.46-1.66-2.21-2.76-2.21s-1.66.55-1.66,1.66v76.84h-24.78V120.97h24.78v24.51c0,1.1.55,1.66,1.66,1.66s2.01-.73,2.76-2.21c9.55-18.73,26.07-28.1,49.57-28.1,11.93,0,23.08,2.84,33.46,8.54,10.37,5.7,18.81,14.27,25.34,25.75Zm-15,41.44c0-16.9-4.54-30.07-13.62-39.51-9.09-9.44-21.06-14.18-35.94-14.18s-26.85,4.73-35.94,14.18c-9.1,9.46-12.43,22.63-12.43,39.51s3.33,30.07,12.43,39.51c9.09,9.46,21.07,14.18,35.94,14.18s26.85-4.73,35.94-14.18c9.09-9.44,13.62-22.63,13.62-39.51Zm-394.51-41.23c6.51,11.47,9.78,25.3,9.78,41.44s-3.25,29.97-9.78,41.44c-6.53,11.48-14.97,20.05-25.34,25.75-10.37,5.7-21.53,8.54-33.46,8.54-23.5,0-40.03-9.37-49.57-28.1-.73-1.46-1.66-2.21-2.76-2.21s-1.66.55-1.66,1.66v76.84h-24.76V121.19h24.78v24.51c0,1.1.55,1.66,1.66,1.66s2.01-.73,2.76-2.21c9.54-18.73,26.07-28.1,49.57-28.1,11.93,0,23.09,2.84,33.46,8.54,10.37,5.7,18.81,14.27,25.34,25.75h-.02Zm-15.01,41.44c0-16.9-4.53-30.07-13.62-39.51-9.09-9.44-21.06-14.18-35.94-14.18s-26.85,4.73-35.94,14.18c-9.09,9.46-12.42,22.63-12.42,39.51s3.33,30.07,12.42,39.51c9.09,9.46,21.06,14.18,35.94,14.18s26.85-4.73,35.94-14.18c9.09-9.44,13.62-22.63,13.62-39.51Zm152.01,25.93h26.16c-3.49,13.41-10.61,25.02-21.33,34.84-10.75,9.82-26.12,14.73-46.14,14.73-15.06,0-28.31-3.08-39.79-9.23-11.48-6.15-20.33-14.91-26.58-26.3-6.25-11.38-9.37-24.78-9.37-40.2s3.04-28.83,9.09-40.2c6.05-11.38,14.55-20.15,25.47-26.3,10.92-6.15,23.72-9.23,38.41-9.23s26.85,3.04,37.05,9.09c10.19,6.05,17.8,14.1,22.85,24.09,5.05,10.02,7.57,20.98,7.57,32.91v16.52h-114.28c.91,14.31,5.74,25.71,14.45,34.15,8.71,8.44,20.43,12.68,35.11,12.68,11.93,0,21.08-2.43,27.41-7.3,6.33-4.87,10.96-11.61,13.9-20.25Zm-90.6-39.93h86.48c0-12.48-3.21-22.26-9.64-29.34-6.43-7.06-16.52-10.61-30.28-10.61-12.85,0-23.36,3.45-31.53,10.33-8.16,6.88-13.17,16.76-15,29.59l-.02.02Zm392.49,85.37h24.79V65.88h-24.79v198.29-.02Zm343.88-158.82h28.94v-31h-28.94v31Zm102.12,137.48c-4.5.45-7.23.69-8.13.69-1.27,0-2.31-.37-3.03-1.11-.73-.73-1.11-1.73-1.11-3.04,0-.91.24-3.63.7-8.12.45-4.5.69-11.44.69-20.78v-68.51h35.34l-6.96-20.98h-28.37v-38.56h-24.78v38.55h-26.96v20.98h26.96v75.4c0,15.79,3.86,27.54,11.57,35.25,7.71,7.71,19.46,11.57,35.25,11.57h19.28v-22.02h-9.65c-9.37,0-16.3.24-20.8.69h-.01Zm145.02-121.87l-41.04,120.15c-.55,1.48-1.41,3.41-4.23,3.41s-3.7-1.93-4.24-3.41l-41.03-120.15h-25.27l47.51,143.2h16.8c1.1,0,1.92.1,2.49.28.55.18,1.01.63,1.38,1.38.73,1.1.64,2.76-.28,4.95l-7.7,20.92c-1.11,2.76-3.22,4.14-6.33,4.14-1.11,0-3.67-.24-7.71-.69-4.04-.45-9.27-.69-15.69-.69h-20.11v22.02h26.43c15.42,0,24.71-2.62,32.69-7.85,7.99-5.22,14.17-14.45,18.6-27.68l51.33-154.5v-5.5h-23.58v.02Zm-328.09,53.43l-38.82-53.43h-27.26v5.5l46.53,61.97-56.73,70.23v5.5h27.82l45.17-57.55,42.14,57.55h26.71v-5.5l-49.3-66.09,53.44-65.81v-5.78h-27.82l-41.86,53.43-.03-.02Zm83.6,89.77h24.79V120.97h-24.79v143.2-.02Zm-158.76-45.45c-3.49,13.41-10.6,25.02-21.34,34.84-10.74,9.82-26.12,14.73-46.14,14.73-15.05,0-28.31-3.08-39.78-9.23-11.48-6.15-20.33-14.91-26.59-26.3-6.25-11.38-9.36-24.78-9.36-40.2s3.03-28.83,9.09-40.2c6.05-11.38,14.54-20.15,25.47-26.3,10.92-6.15,23.72-9.23,38.41-9.23s26.85,3.04,37.05,9.09c10.18,6.05,17.79,14.1,22.85,24.09,5.05,10.02,7.57,20.98,7.57,32.91v16.52h-114.29c.92,14.31,5.75,25.71,14.45,34.15,8.72,8.44,20.43,12.68,35.11,12.68,11.93,0,21.08-2.43,27.42-7.3,6.32-4.87,10.96-11.61,13.89-20.25h26.17Zm-116.76-39.93h86.48c0-12.48-3.21-22.26-9.64-29.34-6.44-7.06-16.53-10.61-30.3-10.61-12.85,0-23.36,3.45-31.52,10.33-8.17,6.88-13.18,16.76-15,29.59l-.03.02Z"/><path class="cls-2" d="m169.19,20v360"/><path class="cls-2" d="m265.71,226.84l-96.52-96.61v138.5l96.52,96.61v-138.5Z"/><path class="cls-2" d="m72.66,226.84l96.53-96.61v138.5l-96.53,96.61v-138.5Z"/><path class="cls-2" d="m169.19,130.24H31.24v137.94h41.42"/><path class="cls-2" d="m265.71,268.18h41.42v-137.94h-137.95"/><path class="cls-2" d="m265.71,130.24V33.63l-96.52,96.61"/><path class="cls-2" d="m169.19,130.24L72.66,33.63v96.61"/></svg>