<svg width="206" height="232" viewBox="0 0 206 232" fill="none" xmlns="http://www.w3.org/2000/svg">
<path d="M143.143 84.8992C143.143 97.0494 133.293 106.899 121.143 106.899C108.992 106.899 99.1426 97.0494 99.1426 84.8992C99.1426 72.7489 108.992 62.8992 121.143 62.8992C133.293 62.8992 143.143 72.7489 143.143 84.8992Z" fill="#0F0F0F"/>
<ellipse cx="84.1426" cy="147.899" rx="22" ry="22" transform="rotate(180 84.1426 147.899)" fill="#0F0F0F"/>
<path fill-rule="evenodd" clip-rule="evenodd" d="M166.738 155.447C157.86 161.185 148.023 165.168 137.757 167.24C139.858 161.181 141 154.673 141 147.899C141 145.442 140.85 143.02 140.558 140.642C144.975 139.103 149.215 137.038 153.183 134.474C162.73 128.303 170.292 119.508 174.961 109.143C179.63 98.7789 181.207 87.2868 179.502 76.0479C177.798 64.809 172.884 54.3013 165.352 45.7874C157.82 37.2736 147.99 31.1157 137.042 28.0537C126.095 24.9918 114.496 25.156 103.64 28.5266C92.7839 31.8972 83.1319 38.3308 75.8437 47.0545C74.9102 48.1719 74.0206 49.3208 73.176 50.4984C61.9292 51.7479 51.0363 54.931 40.9629 59.8548C44.2417 49.3578 49.5653 39.5583 56.679 31.0434C67.0505 18.629 80.7861 9.47343 96.2354 4.67679C111.685 -0.119844 128.19 -0.353495 143.769 4.00391C159.348 8.36132 173.337 17.1244 184.056 29.2403C194.775 41.3561 201.767 56.3093 204.193 72.3031C206.619 88.297 204.374 104.651 197.73 119.4C191.086 134.15 180.324 146.667 166.738 155.447ZM41.9631 75.1741L62.5557 77.7034C63.0459 73.7121 63.9401 69.801 65.2138 66.0265C57.0465 67.9008 49.2088 70.9862 41.9631 75.1741Z" fill="#0F0F0F"/>
<path fill-rule="evenodd" clip-rule="evenodd" d="M38.4045 77.351C47.3493 71.57 57.2677 67.5704 67.6171 65.5123C65.2774 71.866 64 78.7335 64 85.8992C64 88.0426 64.1143 90.1592 64.3371 92.2434C60.0093 93.7724 55.8533 95.8084 51.9599 98.3247C42.4128 104.495 34.8505 113.291 30.1816 123.655C25.5126 134.02 23.9357 145.512 25.6403 156.751C27.3449 167.989 32.2584 178.497 39.7906 187.011C47.3227 195.525 57.153 201.683 68.1003 204.745C79.0476 207.807 90.6462 207.642 101.502 204.272C112.359 200.901 122.011 194.468 129.299 185.744C130.237 184.621 131.131 183.466 131.979 182.282C143.235 181.013 154.132 177.809 164.205 172.861C160.929 183.389 155.596 193.218 148.464 201.755C138.092 214.169 124.357 223.325 108.907 228.122C93.458 232.918 76.9524 233.152 61.3736 228.794C45.7948 224.437 31.8055 215.674 21.0867 203.558C10.3679 191.442 3.37557 176.489 0.949823 160.495C-1.47592 144.501 0.768139 128.147 7.41237 113.398C14.0566 98.6489 24.8183 86.1318 38.4045 77.351ZM163.062 157.61L163.062 157.61C162.954 157.672 162.846 157.734 162.738 157.796C162.846 157.734 162.954 157.672 163.062 157.61Z" fill="#0F0F0F"/>
</svg>
