<svg width="743" height="232" viewBox="0 0 743 232" fill="none" xmlns="http://www.w3.org/2000/svg">
<path d="M305.729 181.899C304.643 181.899 303.665 181.519 302.795 180.758C302.035 179.889 301.654 178.911 301.654 177.824V93.3902H272.64C271.554 93.3902 270.576 93.0099 269.706 92.2492C268.946 91.3799 268.565 90.4019 268.565 89.3152V71.8742C268.565 70.6789 268.946 69.7009 269.706 68.9402C270.576 68.1795 271.554 67.7992 272.64 67.7992H360.334C361.53 67.7992 362.508 68.1795 363.268 68.9402C364.029 69.7009 364.409 70.6789 364.409 71.8742V89.3152C364.409 90.5105 364.029 91.4885 363.268 92.2492C362.508 93.0099 361.53 93.3902 360.334 93.3902H331.32V177.824C331.32 178.911 330.94 179.889 330.179 180.758C329.419 181.519 328.441 181.899 327.245 181.899H305.729Z" fill="#0F0F0F"/>
<path d="M361.083 181.899C360.214 181.899 359.399 181.573 358.638 180.921C357.986 180.161 357.66 179.346 357.66 178.476C357.66 177.824 357.715 177.335 357.823 177.009L396.128 72.3632C396.454 71.0592 397.161 69.9725 398.247 69.1032C399.334 68.2339 400.747 67.7992 402.485 67.7992H426.609C428.348 67.7992 429.761 68.2339 430.847 69.1032C431.934 69.9725 432.64 71.0592 432.966 72.3632L471.108 177.009L471.434 178.476C471.434 179.346 471.054 180.161 470.293 180.921C469.641 181.573 468.826 181.899 467.848 181.899H447.799C445.191 181.899 443.453 180.758 442.583 178.476L436.226 161.85H392.705L386.511 178.476C385.642 180.758 383.849 181.899 381.132 181.899H361.083ZM429.706 138.378L414.547 95.3462L399.388 138.378H429.706Z" fill="#0F0F0F"/>
<path d="M529.657 183.529C514.335 183.529 502.327 179.78 493.634 172.282C485.049 164.784 480.757 153.483 480.757 138.378V71.8742C480.757 70.6789 481.137 69.7009 481.898 68.9402C482.767 68.1795 483.745 67.7992 484.832 67.7992H505.859C507.054 67.7992 508.032 68.1795 508.793 68.9402C509.662 69.7009 510.097 70.6789 510.097 71.8742V138.215C510.097 145.279 511.727 150.603 514.987 154.189C518.356 157.667 523.191 159.405 529.494 159.405C535.688 159.405 540.469 157.612 543.838 154.026C547.207 150.44 548.891 145.17 548.891 138.215V71.8742C548.891 70.6789 549.271 69.7009 550.032 68.9402C550.901 68.1795 551.879 67.7992 552.966 67.7992H574.156C575.351 67.7992 576.329 68.1795 577.09 68.9402C577.851 69.7009 578.231 70.6789 578.231 71.8742V138.378C578.231 153.483 573.884 164.784 565.191 172.282C556.606 179.78 544.762 183.529 529.657 183.529Z" fill="#0F0F0F"/>
<path d="M603.921 181.899C602.835 181.899 601.857 181.519 600.987 180.758C600.227 179.889 599.846 178.911 599.846 177.824V71.8742C599.846 70.6789 600.227 69.7009 600.987 68.9402C601.857 68.1795 602.835 67.7992 603.921 67.7992H648.257C662.493 67.7992 673.577 71.0592 681.509 77.5792C689.551 83.9905 693.571 93.1185 693.571 104.963C693.571 112.57 691.778 119.036 688.192 124.36C684.606 129.685 679.662 133.76 673.359 136.585L695.69 176.683C696.016 177.335 696.179 177.933 696.179 178.476C696.179 179.346 695.799 180.161 695.038 180.921C694.386 181.573 693.626 181.899 692.756 181.899H671.077C667.926 181.899 665.698 180.432 664.394 177.498L645.812 141.638H629.186V177.824C629.186 179.02 628.752 179.998 627.882 180.758C627.122 181.519 626.144 181.899 624.948 181.899H603.921ZM647.931 118.492C652.93 118.492 656.733 117.297 659.341 114.906C661.949 112.407 663.253 108.984 663.253 104.637C663.253 100.291 661.949 96.8675 659.341 94.3682C656.842 91.7602 653.039 90.4562 647.931 90.4562H629.186V118.492H647.931Z" fill="#0F0F0F"/>
<path d="M716.621 181.899C715.534 181.899 714.556 181.519 713.687 180.758C712.926 179.889 712.546 178.911 712.546 177.824V71.8742C712.546 70.6789 712.926 69.7009 713.687 68.9402C714.556 68.1795 715.534 67.7992 716.621 67.7992H738.463C739.658 67.7992 740.636 68.1795 741.397 68.9402C742.266 69.7009 742.701 70.6789 742.701 71.8742V177.824C742.701 179.02 742.266 179.998 741.397 180.758C740.636 181.519 739.658 181.899 738.463 181.899H716.621Z" fill="#0F0F0F"/>
<path d="M143.143 84.8992C143.143 97.0494 133.293 106.899 121.143 106.899C108.992 106.899 99.1426 97.0494 99.1426 84.8992C99.1426 72.7489 108.992 62.8992 121.143 62.8992C133.293 62.8992 143.143 72.7489 143.143 84.8992Z" fill="#0F0F0F"/>
<ellipse cx="84.1426" cy="147.899" rx="22" ry="22" transform="rotate(180 84.1426 147.899)" fill="#0F0F0F"/>
<path fill-rule="evenodd" clip-rule="evenodd" d="M166.738 155.447C157.86 161.185 148.023 165.168 137.757 167.24C139.858 161.181 141 154.673 141 147.899C141 145.442 140.85 143.02 140.558 140.642C144.975 139.103 149.215 137.038 153.183 134.474C162.73 128.303 170.292 119.508 174.961 109.143C179.63 98.7789 181.207 87.2868 179.502 76.0479C177.798 64.809 172.884 54.3013 165.352 45.7874C157.82 37.2736 147.99 31.1157 137.042 28.0537C126.095 24.9918 114.496 25.156 103.64 28.5266C92.7839 31.8972 83.1319 38.3308 75.8437 47.0545C74.9102 48.1719 74.0206 49.3208 73.176 50.4984C61.9292 51.7479 51.0363 54.931 40.9629 59.8548C44.2417 49.3578 49.5653 39.5583 56.679 31.0434C67.0505 18.629 80.7861 9.47343 96.2354 4.67679C111.685 -0.119844 128.19 -0.353495 143.769 4.00391C159.348 8.36132 173.337 17.1244 184.056 29.2403C194.775 41.3561 201.767 56.3093 204.193 72.3031C206.619 88.297 204.374 104.651 197.73 119.4C191.086 134.15 180.324 146.667 166.738 155.447ZM41.9631 75.1741L62.5557 77.7034C63.0459 73.7121 63.9401 69.801 65.2138 66.0265C57.0465 67.9008 49.2088 70.9862 41.9631 75.1741Z" fill="#0F0F0F"/>
<path fill-rule="evenodd" clip-rule="evenodd" d="M38.4045 77.351C47.3493 71.57 57.2677 67.5704 67.6171 65.5123C65.2774 71.866 64 78.7335 64 85.8992C64 88.0426 64.1143 90.1592 64.3371 92.2434C60.0093 93.7724 55.8533 95.8084 51.9599 98.3247C42.4128 104.495 34.8505 113.291 30.1816 123.655C25.5126 134.02 23.9357 145.512 25.6403 156.751C27.3449 167.989 32.2584 178.497 39.7906 187.011C47.3227 195.525 57.153 201.683 68.1003 204.745C79.0476 207.807 90.6462 207.642 101.502 204.272C112.359 200.901 122.011 194.468 129.299 185.744C130.237 184.621 131.131 183.466 131.979 182.282C143.235 181.013 154.132 177.809 164.205 172.861C160.929 183.389 155.596 193.218 148.464 201.755C138.092 214.169 124.357 223.325 108.907 228.122C93.458 232.918 76.9524 233.152 61.3736 228.794C45.7948 224.437 31.8055 215.674 21.0867 203.558C10.3679 191.442 3.37557 176.489 0.949823 160.495C-1.47592 144.501 0.768139 128.147 7.41237 113.398C14.0566 98.6489 24.8183 86.1318 38.4045 77.351ZM163.062 157.61L163.062 157.61C162.954 157.672 162.846 157.734 162.738 157.796C162.846 157.734 162.954 157.672 163.062 157.61Z" fill="#0F0F0F"/>
</svg>
