<svg viewBox="0 0 192 192" xmlns="http://www.w3.org/2000/svg">
  <defs>
    <filter id="sketch" x="-5%" y="-5%" width="110%" height="110%">
      <feTurbulence type="fractalNoise" baseFrequency="0.02" numOctaves="2" seed="4"/>
      <feDisplacementMap in="SourceGraphic" scale="1.8"/>
    </filter>
  </defs>
  <rect width="192" height="192" fill="#F3F6FB"/>
  <g filter="url(#sketch)" stroke="#1A1A1A" stroke-width="2" stroke-linecap="round" stroke-linejoin="round" fill="none">
    <path d="M 18 24 Q 52 20 84 25 Q 86 61 83 96 Q 50 100 18 96 Q 15 61 18 24 Z"/>
    <path d="M 25 36 Q 49 33 73 36"/>
    <path d="M 27 50 Q 50 47 72 51"/>
    <path d="M 30 64 Q 46 62 64 66"/>
    <path d="M 97 24 Q 140 20 174 25 Q 178 76 173 128 Q 136 132 97 127 Q 93 76 97 24 Z"/>
    <path d="M 106 37 Q 130 34 163 37"/>
    <path d="M 107 51 Q 132 49 161 52"/>
    <path d="M 116 67 Q 138 64 158 68"/>
    <path d="M 115 90 Q 135 86 157 91"/>
    <path d="M 120 103 Q 138 99 155 104"/>
    <path d="M 88 72 Q 93 69 96 73 Q 92 78 88 72 Z"/>
    <path d="M 86 79 Q 92 84 96 79"/>
    <path d="M 78 144 C 94 139 106 148 104 162 C 102 174 91 181 78 178 C 65 175 59 165 62 154 C 64 148 69 145 78 144 Z"/>
    <circle cx="75" cy="158" r="1.7" fill="#1A1A1A"/>
    <circle cx="89" cy="158" r="1.7" fill="#1A1A1A"/>
    <path d="M 76 168 Q 83 171 91 167"/>
    <path d="M 66 181 Q 79 187 99 181"/>
    <path d="M 69 184 Q 61 189 52 190"/>
    <path d="M 96 183 Q 106 187 116 190"/>
    <path d="M 124 141 Q 151 137 171 143 Q 171 161 168 176 Q 145 181 121 176 Q 119 159 124 141 Z"/>
    <path d="M 132 151 Q 149 149 162 152"/>
    <path d="M 132 163 Q 149 160 160 164"/>
  </g>
</svg>
