<svg viewBox="0 0 192 192" xmlns="http://www.w3.org/2000/svg">
  <defs>
    <filter id="sketch" x="-5%" y="-5%" width="110%" height="110%">
      <feTurbulence type="fractalNoise" baseFrequency="0.02" numOctaves="2" seed="8"/>
      <feDisplacementMap in="SourceGraphic" scale="1.9"/>
    </filter>
  </defs>
  <rect width="192" height="192" fill="#F3F6FB"/>
  <g filter="url(#sketch)" stroke="#1A1A1A" stroke-width="2" stroke-linecap="round" stroke-linejoin="round" fill="none">
    <path d="M 26 38 Q 63 34 87 39 Q 89 78 85 119 Q 54 123 27 118 Q 23 79 26 38 Z"/>
    <path d="M 34 52 Q 52 49 76 53"/>
    <path d="M 37 67 Q 55 64 75 68"/>
    <path d="M 44 90 Q 60 86 75 90"/>
    <path d="M 108 38 Q 150 34 174 40 Q 177 79 173 120 Q 139 124 108 119 Q 104 80 108 38 Z"/>
    <path d="M 116 52 Q 137 48 164 53"/>
    <path d="M 118 68 Q 139 64 163 69"/>
    <path d="M 123 92 Q 141 88 160 92"/>
    <path d="M 87 78 Q 98 70 108 78"/>
    <path d="M 92 71 Q 99 67 104 72"/>
    <path d="M 84 102 Q 97 111 110 101"/>
    <path d="M 47 140 C 62 137 75 145 73 160 C 71 174 58 181 46 177 C 34 173 30 161 34 150 C 36 145 41 141 47 140 Z"/>
    <circle cx="45" cy="154" r="1.7" fill="#1A1A1A"/>
    <circle cx="58" cy="154" r="1.7" fill="#1A1A1A"/>
    <path d="M 45 165 Q 53 168 60 164"/>
    <path d="M 34 181 Q 49 187 69 181"/>
    <path d="M 83 145 Q 104 140 121 146 Q 120 163 118 176 Q 99 181 82 176 Q 79 161 83 145 Z"/>
    <path d="M 90 155 Q 100 152 112 156"/>
    <path d="M 91 166 Q 102 163 112 167"/>
    <path d="M 134 142 Q 157 138 174 145 Q 174 164 169 178 Q 150 181 132 176 Q 128 160 134 142 Z"/>
    <path d="M 140 153 Q 153 150 164 154"/>
    <path d="M 142 165 Q 154 162 163 166"/>
  </g>
</svg>
