<svg viewBox="0 0 192 192" xmlns="http://www.w3.org/2000/svg">
  <defs>
    <filter id="sketch" x="-5%" y="-5%" width="110%" height="110%">
      <feTurbulence type="fractalNoise" baseFrequency="0.02" numOctaves="2" seed="2"/>
      <feDisplacementMap in="SourceGraphic" scale="1.8"/>
    </filter>
  </defs>
  <rect width="192" height="192" fill="#F3F6FB"/>
  <g filter="url(#sketch)" stroke="#1A1A1A" stroke-width="2" stroke-linecap="round" stroke-linejoin="round" fill="none">
    <path d="M 20 35 Q 77 30 172 36 Q 176 86 171 137 Q 93 143 21 137 Q 16 87 20 35 Z"/>
    <path d="M 30 52 Q 67 48 104 53"/>
    <path d="M 32 69 Q 79 65 132 70"/>
    <path d="M 34 86 Q 66 82 96 87"/>
    <path d="M 108 86 Q 129 82 153 87"/>
    <path d="M 46 103 Q 75 98 102 103"/>
    <path d="M 112 104 Q 134 99 158 104"/>
    <path d="M 125 70 Q 132 62 140 70 Q 132 78 125 70 Z"/>
    <path d="M 141 68 Q 149 61 157 69 Q 149 78 141 68 Z"/>
    <path d="M 129 76 Q 140 80 153 76"/>
    <path d="M 67 148 C 83 144 96 153 94 166 C 92 179 79 185 66 181 C 54 177 49 166 53 157 C 55 152 60 149 67 148 Z"/>
    <circle cx="65" cy="161" r="1.7" fill="#1A1A1A"/>
    <circle cx="79" cy="161" r="1.7" fill="#1A1A1A"/>
    <path d="M 64 171 Q 72 176 81 170"/>
    <path d="M 53 184 Q 68 190 90 184"/>
    <path d="M 105 151 Q 134 145 157 152 Q 158 169 154 182 Q 127 187 104 181 Q 100 166 105 151 Z"/>
    <path d="M 113 161 Q 131 158 148 162"/>
    <path d="M 113 173 Q 131 170 147 174"/>
  </g>
</svg>
