<svg width="81" height="20" viewBox="0 0 81 20" fill="none" xmlns="http://www.w3.org/2000/svg">
<path fill-rule="evenodd" clip-rule="evenodd" d="M3.71303 19.081C5.14513 19.5711 6.65548 19.8161 8.24644 19.8161V19.8114C10.8522 19.8114 12.8889 19.2808 14.3613 18.2197C15.8314 17.1586 16.5687 15.6716 16.5687 13.7588C16.5687 12.1671 16.1111 10.9609 15.1935 10.1424C14.276 9.32163 12.7016 8.7197 10.4657 8.33427C8.05438 7.91554 6.47528 7.54201 5.7284 7.21845C4.98153 6.89488 4.60691 6.36195 4.60691 5.61965C4.60691 4.82738 4.91277 4.24211 5.5245 3.86382C6.13622 3.48553 6.97082 3.2952 8.03304 3.2952C9.17351 3.2952 10.2713 3.48791 11.324 3.86858C12.3768 4.25163 13.3868 4.80835 14.3518 5.53875L15.6061 2.88598C14.8189 2.01521 13.7449 1.33715 12.3863 0.84704C11.0229 0.354552 9.59792 0.109498 8.1018 0.109498C5.62645 0.109498 3.74622 0.678119 2.45876 1.80822C1.17366 2.94071 0.528739 4.36821 0.528739 6.08834C0.528739 7.68238 0.995832 8.87434 1.92765 9.67137C2.85946 10.4684 4.4599 11.0418 6.72661 11.3963C9.08815 11.7983 10.6364 12.1647 11.3667 12.4954C12.0994 12.8238 12.4645 13.3615 12.4645 14.099C12.4645 14.9198 12.1491 15.5455 11.5232 15.9809C10.8972 16.4139 9.97966 16.6304 8.77518 16.6304C7.26483 16.6304 5.91809 16.4163 4.73731 15.9809C3.55654 15.5479 2.45164 14.896 1.42262 14.0276L0 16.8017C1.04325 17.8319 2.28093 18.5909 3.71303 19.081Z" fill="#F7F4EF"/>
<path fill-rule="evenodd" clip-rule="evenodd" d="M53.7941 19.5954C53.7941 19.5954 52.8111 18.4825 52.0134 15.8932C51.3481 13.7322 51.7067 12.344 50.8296 10.7038C50.0959 9.33099 48.6462 9.05687 47.2705 7.52777C46.047 6.16821 45.5141 4.59287 45.5141 4.59287V19.5954H41.9263V0.330334H47.6246C47.6246 0.330334 49.3722 3.05607 50.15 4.71947C51.0315 6.60415 50.6972 8.08701 51.6924 10.0631C53.0063 12.6743 53.5822 12.333 54.8709 13.7609C55.5979 14.5667 55.9046 15.3802 55.9046 15.3802V0.330334H59.4692V19.5954H53.7941Z" fill="#F7F4EF"/>
<path fill-rule="evenodd" clip-rule="evenodd" d="M22.028 18.2129C23.303 19.4043 26.0399 20 28.9302 20H28.935C31.8253 20 34.5598 19.4043 35.8372 18.2129C37.1122 17.0216 37.8695 15.1723 37.7497 12.6771C37.6898 11.4259 37.2608 8.94032 37.2704 7.68674C37.28 6.61977 37.6898 4.50974 37.7497 3.44277C37.7928 2.6557 37.7497 0.294481 37.7497 0.294481H33.6084C33.6084 0.294481 33.4118 2.68201 33.6084 3.44277C33.9175 4.64371 35.993 6.55039 36.005 7.792C36.0169 9.03362 33.9175 11.0886 33.6084 12.335C33.2345 13.847 33.3328 14.9953 32.7791 15.6436C32.2255 16.2919 30.5096 16.6173 28.9326 16.6173C27.3556 16.6173 25.6397 16.2943 25.086 15.6436C24.5324 14.9953 24.2568 13.89 24.2568 12.335V0.294481H20.1155V12.6771C20.1155 15.1771 20.753 17.0192 22.028 18.2129Z" fill="#F7F4EF"/>
<path fill-rule="evenodd" clip-rule="evenodd" d="M78.9591 1.79866C77.5985 0.599552 74.9368 0 72.2774 0C69.1447 0 65.189 0.330705 64.0211 3.96608C62.9721 7.23031 65.5839 7.94407 65.6433 10.4232C65.7147 13.4304 62.6581 15.2481 65.2413 18.1769C66.7684 19.9066 69.5895 19.9256 72.2489 19.9256C74.9106 19.9256 77.5723 19.3332 78.9448 18.1507C80.3126 16.9683 81 15.291 81 13.1212V6.89961C81 4.69887 80.3173 2.99776 78.9544 1.79628L78.9591 1.79866ZM76.8326 12.819C76.8326 14.2822 76.5257 15.31 75.9144 15.9095C75.3007 16.5091 73.6047 16.8089 72.1323 16.8089C70.6599 16.8089 68.964 16.5091 68.3503 15.9095C67.7366 15.31 67.4321 14.2798 67.4321 12.819V7.20414C67.4321 5.71002 67.7389 4.65367 68.3503 4.03746C68.964 3.42125 70.6599 3.11434 72.1323 3.11434C73.6047 3.11434 75.3007 3.41887 75.9144 4.03746C76.5281 4.65604 76.8326 5.71002 76.8326 7.20414V12.819Z" fill="#F7F4EF"/>
</svg>
