<svg xmlns="http://www.w3.org/2000/svg" fill="none" viewBox="0 0 423 89" height="89" width="423">
<path stroke-miterlimit="10" stroke-width="0.98" stroke="black" d="M234.719 0V63.44"></path>
<path fill="black" d="M129.4 30.3806C129.4 31.0906 129.09 31.6006 128.12 31.6006H121.92C121.12 31.6006 120.67 31.3706 120.67 30.6306C120.67 29.8906 120.98 29.5206 121.92 29.5206H129.4V30.3706V30.3806ZM156.72 27.4506V26.6306C156.72 25.8906 157.03 25.4106 158.03 25.4106H164.23C165.08 25.4106 165.51 25.6706 165.51 26.4606C165.51 27.1406 165.17 27.4506 164.29 27.4506H156.73H156.72ZM172.98 21.9606V35.0406H179.23V25.5206H184.35C186.08 25.5206 186.97 26.0606 186.97 27.7406V35.0506H193.22V27.2306C193.22 23.5606 191.2 21.9706 185.49 21.9706H172.98V21.9606ZM157.57 21.9606C152.54 21.9606 150.52 23.6406 150.52 27.4206V30.0106C150.52 33.2806 152.54 35.0406 157.09 35.0406H170.34V31.6006H158.34C157.15 31.6006 156.75 31.2606 156.75 30.3806V29.8406H166.22C169.49 29.8406 171.34 28.8206 171.34 26.3706V25.7706C171.34 23.5506 170.23 21.9606 164.69 21.9606H157.58H157.57ZM137.47 35.0406H143.72V26.4606C143.72 25.8906 143.95 25.5206 144.71 25.5206H149.57V21.9706H142.61C138.89 21.9706 137.46 23.3606 137.46 25.6906V35.0406H137.47ZM116.09 21.9606V25.4006H127.83C129 25.4006 129.39 25.8006 129.39 26.6506V27.1606H119.95C116 27.1606 114.8 28.7806 114.8 30.8606V31.3706C114.8 34.2406 117.1 35.0406 121.62 35.0406H128.56C133.48 35.0406 135.61 33.9306 135.61 30.0706V27.0306C135.61 23.7606 133.59 21.9706 129.01 21.9706H116.08L116.09 21.9606ZM78.69 29.2406C78.69 33.3606 80.79 35.0406 86.22 35.0406H98.13V31.5206H87.13C85.82 31.5206 84.94 30.9206 84.94 29.0506V27.9106C84.94 26.2306 85.76 25.5206 87.1 25.5206H98.13V21.9706H86.05C80.71 21.9706 78.69 24.2206 78.69 27.8006V29.2506V29.2406ZM100.01 19.8906V35.0406H113.6V31.4906H106.27V19.8906H100.02H100.01ZM60.98 28.3606V19.8906H57.46C55.27 19.8906 54.02 20.7706 52.71 21.7906L36 35.0406H43.53L54.62 26.0606V35.0406H59.82L70.57 26.0006V35.0406H76.94V19.8906H73.47C71.59 19.8906 70.29 20.6606 68.98 21.7406L60.99 28.3606H60.98Z"></path>
<path fill="#FF8000" d="M208.262 8.89062C204.772 8.89062 199.852 9.93062 194.522 11.8806C190.072 13.5106 185.672 15.5806 180.922 18.5806C183.702 17.4406 189.202 16.1606 193.722 16.1606C199.832 16.1606 204.192 18.5006 197.762 26.7106C216.722 14.2906 216.202 8.89062 208.262 8.89062Z"></path>
<path fill="black" d="M72.7487 54.4703H71.4688V48.3203H74.9888V49.3903H72.7487V50.9703H74.8288V52.0303H72.7487V54.4603V54.4703Z"></path>
<path fill="black" d="M85.1881 51.3922C85.1881 52.4122 84.9381 53.1922 84.4281 53.7422C83.9181 54.2922 83.1981 54.5622 82.2581 54.5622C81.3181 54.5622 80.5981 54.2922 80.0881 53.7422C79.5781 53.1922 79.3281 52.4122 79.3281 51.3922C79.3281 50.3722 79.5781 49.5922 80.0881 49.0522C80.5981 48.5122 81.3181 48.2422 82.2681 48.2422C83.2181 48.2422 83.9381 48.5122 84.4381 49.0622C84.9381 49.6022 85.1881 50.3922 85.1881 51.4122V51.3922ZM80.7081 51.3922C80.7081 52.0822 80.8381 52.5922 81.0981 52.9422C81.3581 53.2922 81.7481 53.4622 82.2681 53.4622C83.3081 53.4622 83.8281 52.7722 83.8281 51.3922C83.8281 50.0122 83.3081 49.3122 82.2781 49.3122C81.7581 49.3122 81.3681 49.4822 81.1081 49.8322C80.8481 50.1822 80.7081 50.7022 80.7081 51.3822V51.3922Z"></path>
<path fill="black" d="M91.2297 52.1103V54.4703H89.9297V48.3203H91.7197C92.5597 48.3203 93.1697 48.4703 93.5697 48.7803C93.9697 49.0803 94.1697 49.5503 94.1697 50.1703C94.1697 50.5303 94.0697 50.8503 93.8697 51.1303C93.6697 51.4103 93.3897 51.6303 93.0297 51.7903L94.8397 54.4703H93.3897L91.9197 52.1103H91.2297ZM91.2297 51.0503H91.6497C92.0597 51.0503 92.3697 50.9803 92.5597 50.8403C92.7597 50.7003 92.8497 50.4903 92.8497 50.1903C92.8497 49.8903 92.7497 49.6903 92.5497 49.5703C92.3497 49.4503 92.0397 49.3903 91.6197 49.3903H91.2197V51.0503H91.2297Z"></path>
<path fill="black" d="M101.819 54.4703L100.339 49.6503H100.299C100.349 50.6303 100.379 51.2903 100.379 51.6103V54.4703H99.2188V48.3203H100.989L102.439 53.0203H102.469L104.009 48.3203H105.779V54.4703H104.569V51.5603C104.569 51.4203 104.569 51.2603 104.569 51.0903C104.569 50.9103 104.589 50.4303 104.629 49.6603H104.589L103.009 54.4703H101.819Z"></path>
<path fill="black" d="M115.79 48.3203V52.3003C115.79 52.7503 115.69 53.1503 115.49 53.4903C115.29 53.8303 114.99 54.0903 114.61 54.2803C114.23 54.4603 113.77 54.5503 113.25 54.5503C112.46 54.5503 111.85 54.3503 111.41 53.9403C110.97 53.5403 110.75 52.9803 110.75 52.2803V48.3203H112.05V52.0803C112.05 52.5503 112.15 52.9003 112.34 53.1203C112.53 53.3403 112.85 53.4503 113.29 53.4503C113.73 53.4503 114.02 53.3403 114.22 53.1203C114.41 52.9003 114.51 52.5503 114.51 52.0703V48.3203H115.81H115.79Z"></path>
<path fill="black" d="M120.752 54.4703V48.3203H122.052V53.3903H124.542V54.4703H120.742H120.752Z"></path>
<path fill="black" d="M133.235 54.4747L132.785 53.0147H130.545L130.095 54.4747H128.695L130.865 48.3047H132.455L134.635 54.4747H133.235ZM132.475 51.9147C132.065 50.5847 131.835 49.8347 131.775 49.6647C131.725 49.4947 131.685 49.3547 131.665 49.2547C131.575 49.6147 131.305 50.5047 130.875 51.9147H132.475Z"></path>
<path fill="black" d="M146.287 54.4703H144.987V50.9103C144.987 50.8403 144.987 50.7503 144.987 50.6503C144.987 50.5503 144.987 50.4403 144.987 50.3303C144.987 50.2203 144.987 50.1103 144.997 50.0003C144.997 49.8903 144.997 49.7903 145.007 49.6903C144.997 49.7103 144.967 49.7303 144.937 49.7703C144.907 49.8103 144.867 49.8403 144.827 49.8803C144.787 49.9203 144.737 49.9603 144.697 50.0003C144.657 50.0403 144.607 50.0803 144.567 50.1103L143.857 50.6803L143.227 49.9003L145.207 48.3203H146.277V54.4703H146.287Z"></path>
<path fill="black" d="M161.908 54.4681H160.608V49.4081H158.938V48.3281H163.577V49.4081H161.908V54.4681Z"></path>
<path fill="black" d="M171.571 54.4703H168.031V48.3203H171.571V49.3903H169.331V50.7403H171.411V51.8103H169.331V53.3903H171.571V54.4703Z"></path>
<path fill="black" d="M180.36 54.4669L179.91 53.0069H177.67L177.22 54.4669H175.82L177.99 48.2969H179.58L181.76 54.4669H180.36ZM179.6 51.9069C179.19 50.5769 178.96 49.8269 178.9 49.6569C178.85 49.4869 178.81 49.3469 178.79 49.2469C178.7 49.6069 178.43 50.4969 178 51.9069H179.6Z"></path>
<path fill="black" d="M188.741 54.4703L187.261 49.6503H187.221C187.271 50.6303 187.301 51.2903 187.301 51.6103V54.4703H186.141V48.3203H187.911L189.361 53.0203H189.391L190.931 48.3203H192.701V54.4703H191.491V51.5603C191.491 51.4203 191.491 51.2603 191.491 51.0903C191.491 50.9103 191.511 50.4303 191.551 49.6603H191.511L189.931 54.4703H188.741Z"></path>
<path fill="black" d="M149.522 51.9678C149.252 51.9678 149.002 51.9178 148.782 51.8278C148.552 51.7378 148.362 51.6078 148.192 51.4378C148.032 51.2678 147.902 51.0778 147.812 50.8478C147.722 50.6278 147.672 50.3778 147.672 50.1178C147.672 49.8578 147.722 49.6078 147.812 49.3778C147.902 49.1478 148.042 48.9578 148.202 48.7878C148.372 48.6278 148.562 48.4978 148.792 48.3978C149.022 48.2978 149.262 48.2578 149.512 48.2578C149.762 48.2578 150.022 48.3078 150.242 48.3978C150.462 48.4978 150.662 48.6278 150.832 48.7978C151.002 48.9678 151.132 49.1678 151.222 49.3878C151.312 49.6078 151.362 49.8478 151.362 50.0978C151.362 50.3478 151.312 50.6078 151.222 50.8278C151.132 51.0478 151.002 51.2478 150.832 51.4178C150.662 51.5878 150.472 51.7178 150.242 51.8078C150.022 51.8978 149.772 51.9478 149.512 51.9478L149.522 51.9678ZM149.522 51.7678C149.752 51.7678 149.972 51.7278 150.172 51.6378C150.372 51.5578 150.542 51.4378 150.692 51.2878C150.842 51.1378 150.952 50.9578 151.042 50.7578C151.122 50.5578 151.172 50.3478 151.172 50.1178C151.172 49.8878 151.132 49.6778 151.052 49.4778C150.972 49.2778 150.852 49.1078 150.712 48.9478C150.562 48.7978 150.392 48.6778 150.192 48.5878C149.992 48.4978 149.772 48.4578 149.542 48.4578C149.312 48.4578 149.092 48.4978 148.892 48.5778C148.692 48.6578 148.522 48.7778 148.372 48.9278C148.222 49.0778 148.112 49.2478 148.022 49.4478C147.942 49.6478 147.902 49.8678 147.902 50.0978C147.902 50.3278 147.942 50.5378 148.022 50.7378C148.102 50.9378 148.212 51.1078 148.362 51.2678C148.512 51.4178 148.682 51.5378 148.882 51.6278C149.082 51.7178 149.302 51.7578 149.542 51.7578L149.522 51.7678ZM148.912 51.1478V49.0878H149.502C149.732 49.0878 149.902 49.1378 150.022 49.2378C150.142 49.3378 150.202 49.4878 150.202 49.6878C150.202 49.8378 150.162 49.9578 150.082 50.0578C150.002 50.1478 149.912 50.2178 149.792 50.2578L150.342 51.1678H150.062L149.562 50.3178H149.152V51.1678H148.912V51.1478ZM149.152 50.0978H149.482C149.622 50.0978 149.742 50.0678 149.832 49.9978C149.922 49.9278 149.972 49.8278 149.972 49.6978C149.972 49.5678 149.932 49.4578 149.842 49.3978C149.752 49.3378 149.642 49.3078 149.492 49.3078H149.152V50.1078V50.0978Z"></path>
<path fill="black" d="M371.832 9.74041C367.767 9.74041 363.947 11.3189 361.074 14.1868C358.207 17.0496 356.631 20.8539 356.639 24.8945C356.639 33.2438 363.454 40.0355 371.832 40.0355H376.141V32.012H371.832C367.893 32.012 364.69 28.8196 364.69 24.8945C364.69 20.9694 367.893 17.7771 371.832 17.7771C373.621 17.7771 375.334 18.4429 376.656 19.651C377.932 20.8184 378.934 22.3811 378.934 24.104V53.1017H386.985V24.8945C386.985 16.5388 380.187 9.74041 371.832 9.74041Z"></path>
<path fill="black" d="M339.193 9.74041H339.19C330.511 9.74041 323.45 16.7737 323.45 25.4183C323.45 34.0628 330.511 41.0961 339.19 41.0961C347.869 41.0961 354.931 34.0628 354.931 25.4156C354.916 16.7873 347.856 9.75535 339.193 9.74041ZM346.583 25.4183C346.583 29.479 343.267 32.7817 339.19 32.7817C335.113 32.7817 331.797 29.479 331.797 25.4183C331.797 21.3575 335.113 18.0548 339.19 18.0548C343.267 18.0548 346.583 21.3575 346.583 25.4183Z"></path>
<path fill="black" d="M302.043 23.973C302.078 23.0472 302.157 22.149 302.334 21.2376L302.338 21.2192C302.562 20.1447 302.904 19.1111 303.352 18.1444C304.287 16.1652 305.665 14.4213 307.344 13.0944C308.989 11.8016 310.916 10.839 312.917 10.3076C313.899 10.0354 314.915 9.86051 315.94 9.78686C318.207 9.6251 320.449 9.8776 322.584 10.6733C323.374 10.9678 324.163 11.3413 324.901 11.7674L326.151 12.4907L322.143 19.4346L320.892 18.7402C320.025 18.2589 319.089 17.9643 318.108 17.8643C317.082 17.7723 316.021 17.8643 315.026 18.1352C314.084 18.3864 313.185 18.8401 312.424 19.4477C311.711 20.0198 311.136 20.7497 310.764 21.5545C310.362 22.4225 310.211 23.3786 310.211 24.3281V40.0368H302.043V23.973Z"></path>
<path fill="black" d="M299.203 24.5023C299.104 20.5296 297.479 16.812 294.627 14.0347C291.777 11.26 288.015 9.72664 284.035 9.71875H283.906C275.593 9.71875 268.792 16.4346 268.719 24.7508C268.684 28.8011 270.229 32.6239 273.071 35.5156C275.914 38.4087 279.711 40.0209 283.777 40.0564H288.41V32.0216H284.011C282.104 32.0479 280.302 31.322 278.939 29.9925C277.574 28.6617 276.81 26.8785 276.789 24.9704C276.746 21.0372 279.907 17.8009 283.84 17.7536H284.03C287.956 17.7536 291.168 20.9543 291.19 24.881V38.9065C291.19 42.7885 288.018 45.984 284.118 46.0339C282.25 46.0195 280.494 45.2804 279.174 43.9496L278.15 42.9186L278.146 42.9226L274.03 50.1631C276.777 52.6604 280.296 54.0411 284.03 54.0687H284.235C288.238 54.0122 291.993 52.4171 294.81 49.5753C297.624 46.7349 299.186 42.9673 299.207 38.9591V24.5036L299.203 24.5023Z"></path>
<path fill="black" d="M175.768 85.4983C175.768 85.9963 175.705 86.4493 175.579 86.8573C175.459 87.2593 175.273 87.6073 175.021 87.9013C174.775 88.1953 174.457 88.4203 174.067 88.5763C173.683 88.7323 173.23 88.8103 172.708 88.8103C172.186 88.8103 171.73 88.7323 171.34 88.5763C170.956 88.4143 170.638 88.1893 170.386 87.9013C170.14 87.6073 169.954 87.2563 169.828 86.8483C169.708 86.4403 169.648 85.9873 169.648 85.4893C169.648 84.8233 169.756 84.2443 169.972 83.7523C170.194 83.2603 170.53 82.8793 170.98 82.6093C171.436 82.3333 172.015 82.1953 172.717 82.1953C173.413 82.1953 173.986 82.3333 174.436 82.6093C174.886 82.8793 175.219 83.2633 175.435 83.7613C175.657 84.2533 175.768 84.8323 175.768 85.4983ZM171.079 85.4983C171.079 85.9483 171.136 86.3353 171.25 86.6593C171.364 86.9833 171.541 87.2323 171.781 87.4063C172.021 87.5803 172.33 87.6673 172.708 87.6673C173.098 87.6673 173.41 87.5803 173.644 87.4063C173.884 87.2323 174.058 86.9833 174.166 86.6593C174.28 86.3353 174.337 85.9483 174.337 85.4983C174.337 84.8203 174.211 84.2893 173.959 83.9053C173.707 83.5213 173.293 83.3293 172.717 83.3293C172.333 83.3293 172.021 83.4163 171.781 83.5903C171.541 83.7643 171.364 84.0133 171.25 84.3373C171.136 84.6613 171.079 85.0483 171.079 85.4983Z"></path>
<path fill="black" d="M181.501 88.7203H180.16V82.2943H183.841V83.4103H181.501V85.0663H183.679V86.1823H181.501V88.7203Z"></path>
<path fill="black" d="M189.5 88.7203H188.159V82.2943H191.84V83.4103H189.5V85.0663H191.678V86.1823H189.5V88.7203Z"></path>
<path fill="black" d="M198.561 88.7203H195.636V87.9463L196.419 87.5863V83.4283L195.636 83.0683V82.2943H198.561V83.0683L197.778 83.4283V87.5863L198.561 87.9463V88.7203Z"></path>
<path fill="black" d="M205.443 83.3383C205.185 83.3383 204.954 83.3893 204.75 83.4913C204.552 83.5933 204.384 83.7403 204.246 83.9323C204.108 84.1183 204.003 84.3463 203.931 84.6163C203.865 84.8863 203.832 85.1893 203.832 85.5253C203.832 85.9813 203.886 86.3713 203.994 86.6953C204.108 87.0133 204.285 87.2563 204.525 87.4243C204.765 87.5923 205.071 87.6763 205.443 87.6763C205.707 87.6763 205.968 87.6463 206.226 87.5863C206.49 87.5263 206.775 87.4423 207.081 87.3343V88.4773C206.799 88.5913 206.52 88.6753 206.244 88.7293C205.968 88.7833 205.659 88.8103 205.317 88.8103C204.657 88.8103 204.111 88.6753 203.679 88.4053C203.253 88.1293 202.938 87.7453 202.734 87.2533C202.53 86.7553 202.428 86.1763 202.428 85.5163C202.428 85.0303 202.494 84.5863 202.626 84.1843C202.758 83.7763 202.95 83.4253 203.202 83.1313C203.46 82.8373 203.775 82.6093 204.147 82.4473C204.525 82.2853 204.957 82.2043 205.443 82.2043C205.761 82.2043 206.079 82.2463 206.397 82.3303C206.721 82.4083 207.03 82.5163 207.324 82.6543L206.883 83.7613C206.643 83.6473 206.4 83.5483 206.154 83.4643C205.914 83.3803 205.677 83.3383 205.443 83.3383Z"></path>
<path fill="black" d="M213.91 88.7203H210.985V87.9463L211.768 87.5863V83.4283L210.985 83.0683V82.2943H213.91V83.0683L213.127 83.4283V87.5863L213.91 87.9463V88.7203Z"></path>
<path fill="black" d="M221.998 88.7203L221.53 87.1903H219.19L218.722 88.7203H217.255L219.523 82.2673H221.188L223.465 88.7203H221.998ZM220.738 84.5533C220.708 84.4513 220.669 84.3223 220.621 84.1663C220.573 84.0103 220.525 83.8513 220.477 83.6893C220.429 83.5273 220.39 83.3863 220.36 83.2663C220.33 83.3863 220.288 83.5363 220.234 83.7163C220.186 83.8903 220.138 84.0583 220.09 84.2203C220.048 84.3763 220.015 84.4873 219.991 84.5533L219.532 86.0473H221.206L220.738 84.5533Z"></path>
<path fill="black" d="M227.339 88.7203V82.2943H228.698V87.5953H231.308V88.7203H227.339Z"></path>
<path fill="black" d="M242.938 82.2943C243.766 82.2943 244.369 82.4743 244.747 82.8343C245.131 83.1883 245.323 83.6773 245.323 84.3013C245.323 84.5833 245.281 84.8533 245.197 85.1113C245.113 85.3633 244.972 85.5913 244.774 85.7953C244.582 85.9933 244.327 86.1493 244.009 86.2633C243.691 86.3773 243.298 86.4343 242.83 86.4343H242.245V88.7203H240.886V82.2943H242.938ZM242.866 83.4103H242.245V85.3183H242.695C242.953 85.3183 243.175 85.2853 243.361 85.2193C243.547 85.1533 243.691 85.0483 243.793 84.9043C243.895 84.7603 243.946 84.5743 243.946 84.3463C243.946 84.0283 243.859 83.7943 243.685 83.6443C243.511 83.4883 243.238 83.4103 242.866 83.4103Z"></path>
<path fill="black" d="M253.082 88.7203L252.614 87.1903H250.274L249.806 88.7203H248.339L250.607 82.2673H252.272L254.549 88.7203H253.082ZM251.822 84.5533C251.792 84.4513 251.753 84.3223 251.705 84.1663C251.657 84.0103 251.609 83.8513 251.561 83.6893C251.513 83.5273 251.474 83.3863 251.444 83.2663C251.414 83.3863 251.372 83.5363 251.318 83.7163C251.27 83.8903 251.222 84.0583 251.174 84.2203C251.132 84.3763 251.099 84.4873 251.075 84.5533L250.616 86.0473H252.29L251.822 84.5533Z"></path>
<path fill="black" d="M260.295 82.2943C260.877 82.2943 261.357 82.3663 261.735 82.5103C262.113 82.6483 262.395 82.8613 262.581 83.1493C262.767 83.4313 262.86 83.7883 262.86 84.2203C262.86 84.5143 262.803 84.7723 262.689 84.9943C262.581 85.2103 262.434 85.3963 262.248 85.5523C262.068 85.7023 261.873 85.8253 261.663 85.9213L263.553 88.7203H262.041L260.511 86.2543H259.782V88.7203H258.423V82.2943H260.295ZM260.196 83.4103H259.782V85.1473H260.223C260.523 85.1473 260.766 85.1143 260.952 85.0483C261.138 84.9823 261.273 84.8833 261.357 84.7513C261.441 84.6133 261.483 84.4483 261.483 84.2563C261.483 84.0523 261.435 83.8903 261.339 83.7703C261.249 83.6443 261.108 83.5543 260.916 83.5003C260.73 83.4403 260.49 83.4103 260.196 83.4103Z"></path>
<path fill="black" d="M269.899 88.7203H268.54V83.4283H266.794V82.2943H271.645V83.4283H269.899V88.7203Z"></path>
<path fill="black" d="M281.393 88.7203H279.665L276.866 83.8603H276.83C276.836 84.0103 276.842 84.1633 276.848 84.3193C276.854 84.4693 276.86 84.6223 276.866 84.7783C276.878 84.9283 276.887 85.0813 276.893 85.2373C276.899 85.3873 276.905 85.5403 276.911 85.6963V88.7203H275.696V82.2943H277.415L280.205 87.1093H280.232C280.226 86.9593 280.22 86.8123 280.214 86.6683C280.208 86.5183 280.202 86.3713 280.196 86.2273C280.196 86.0773 280.193 85.9303 280.187 85.7863C280.181 85.6363 280.175 85.4863 280.169 85.3363V82.2943H281.393V88.7203Z"></path>
<path fill="black" d="M289.776 88.7203H286.077V82.2943H289.776V83.4103H287.436V84.8233H289.614V85.9393H287.436V87.5953H289.776V88.7203Z"></path>
<path fill="black" d="M296.045 82.2943C296.627 82.2943 297.107 82.3663 297.485 82.5103C297.863 82.6483 298.145 82.8613 298.331 83.1493C298.517 83.4313 298.61 83.7883 298.61 84.2203C298.61 84.5143 298.553 84.7723 298.439 84.9943C298.331 85.2103 298.184 85.3963 297.998 85.5523C297.818 85.7023 297.623 85.8253 297.413 85.9213L299.303 88.7203H297.791L296.261 86.2543H295.532V88.7203H294.173V82.2943H296.045ZM295.946 83.4103H295.532V85.1473H295.973C296.273 85.1473 296.516 85.1143 296.702 85.0483C296.888 84.9823 297.023 84.8833 297.107 84.7513C297.191 84.6133 297.233 84.4483 297.233 84.2563C297.233 84.0523 297.185 83.8903 297.089 83.7703C296.999 83.6443 296.858 83.5543 296.666 83.5003C296.48 83.4403 296.24 83.4103 295.946 83.4103Z"></path>
</svg>
