<svg xmlns="http://www.w3.org/2000/svg" fill="none" viewBox="0 0 133 30" height="30" width="133">
<path fill="black" d="M66.3495 7.5C61.1559 7.5 57.4113 10.875 57.4113 15.9375C57.4113 21 61.6264 24.375 66.8199 24.375C69.9577 24.375 72.7238 23.1375 74.4362 21.0516L70.8374 18.9797C69.8871 20.0156 68.4429 20.6203 66.8199 20.6203C64.5665 20.6203 62.6519 19.4484 61.9415 17.5734H75.123C75.2265 17.0484 75.2876 16.5047 75.2876 15.9328C75.2876 10.875 71.543 7.5 66.3495 7.5ZM61.8992 14.2969C62.4872 12.4266 64.0961 11.25 66.3448 11.25C68.5981 11.25 70.207 12.4266 70.7903 14.2969H61.8992ZM117.005 7.5C111.812 7.5 108.067 10.875 108.067 15.9375C108.067 21 112.282 24.375 117.476 24.375C120.614 24.375 123.38 23.1375 125.092 21.0516L121.493 18.9797C120.543 20.0156 119.099 20.6203 117.476 20.6203C115.222 20.6203 113.308 19.4484 112.597 17.5734H125.779C125.882 17.0484 125.944 16.5047 125.944 15.9328C125.944 10.875 122.199 7.5 117.005 7.5ZM112.56 14.2969C113.148 12.4266 114.757 11.25 117.005 11.25C119.259 11.25 120.868 12.4266 121.451 14.2969H112.56ZM94.1989 15.9375C94.1989 18.75 96.043 20.625 98.9032 20.625C100.841 20.625 102.295 19.7484 103.043 18.3188L106.656 20.3953C105.16 22.8797 102.356 24.375 98.9032 24.375C93.705 24.375 89.9651 21 89.9651 15.9375C89.9651 10.875 93.7097 7.5 98.9032 7.5C102.356 7.5 105.155 8.99531 106.656 11.4797L103.043 13.5562C102.295 12.1266 100.841 11.25 98.9032 11.25C96.0477 11.25 94.1989 13.125 94.1989 15.9375ZM133 2.34375V23.9062H128.766V2.34375H133ZM17.3824 0L34.7648 30H0L17.3824 0ZM60.8407 2.34375L47.8051 24.8438L34.7695 2.34375H39.6573L47.8051 16.4062L55.953 2.34375H60.8407ZM88.5538 7.96875V12.5109C88.0833 12.375 87.5847 12.2812 87.0484 12.2812C84.3152 12.2812 82.3441 14.1562 82.3441 16.9688V23.9062H78.1102V7.96875H82.3441V12.2812C82.3441 9.9 85.1243 7.96875 88.5538 7.96875Z"></path>
</svg>
