<svg xmlns="http://www.w3.org/2000/svg" fill="none" viewBox="0 0 351 89" height="89" width="351">
<path stroke-miterlimit="10" stroke-width="0.98" stroke="white" d="M198.719 0V63.44"></path>
<path fill="white" d="M93.4 30.3806C93.4 31.0906 93.09 31.6006 92.12 31.6006H85.92C85.12 31.6006 84.67 31.3706 84.67 30.6306C84.67 29.8906 84.98 29.5206 85.92 29.5206H93.4V30.3706V30.3806ZM120.72 27.4506V26.6306C120.72 25.8906 121.03 25.4106 122.03 25.4106H128.23C129.08 25.4106 129.51 25.6706 129.51 26.4606C129.51 27.1406 129.17 27.4506 128.29 27.4506H120.73H120.72ZM136.98 21.9606V35.0406H143.23V25.5206H148.35C150.08 25.5206 150.97 26.0606 150.97 27.7406V35.0506H157.22V27.2306C157.22 23.5606 155.2 21.9706 149.49 21.9706H136.98V21.9606ZM121.57 21.9606C116.54 21.9606 114.52 23.6406 114.52 27.4206V30.0106C114.52 33.2806 116.54 35.0406 121.09 35.0406H134.34V31.6006H122.34C121.15 31.6006 120.75 31.2606 120.75 30.3806V29.8406H130.22C133.49 29.8406 135.34 28.8206 135.34 26.3706V25.7706C135.34 23.5506 134.23 21.9606 128.69 21.9606H121.58H121.57ZM101.47 35.0406H107.72V26.4606C107.72 25.8906 107.95 25.5206 108.71 25.5206H113.57V21.9706H106.61C102.89 21.9706 101.46 23.3606 101.46 25.6906V35.0406H101.47ZM80.09 21.9606V25.4006H91.83C93 25.4006 93.39 25.8006 93.39 26.6506V27.1606H83.95C80 27.1606 78.8 28.7806 78.8 30.8606V31.3706C78.8 34.2406 81.1 35.0406 85.62 35.0406H92.56C97.48 35.0406 99.61 33.9306 99.61 30.0706V27.0306C99.61 23.7606 97.59 21.9706 93.01 21.9706H80.08L80.09 21.9606ZM42.69 29.2406C42.69 33.3606 44.79 35.0406 50.22 35.0406H62.13V31.5206H51.13C49.82 31.5206 48.94 30.9206 48.94 29.0506V27.9106C48.94 26.2306 49.76 25.5206 51.1 25.5206H62.13V21.9706H50.05C44.71 21.9706 42.69 24.2206 42.69 27.8006V29.2506V29.2406ZM64.01 19.8906V35.0406H77.6V31.4906H70.27V19.8906H64.02H64.01ZM24.98 28.3606V19.8906H21.46C19.27 19.8906 18.02 20.7706 16.71 21.7906L0 35.0406H7.53L18.62 26.0606V35.0406H23.82L34.57 26.0006V35.0406H40.94V19.8906H37.47C35.59 19.8906 34.29 20.6606 32.98 21.7406L24.99 28.3606H24.98Z"></path>
<path fill="#FF8000" d="M172.262 8.89062C168.772 8.89062 163.852 9.93062 158.522 11.8806C154.072 13.5106 149.672 15.5806 144.922 18.5806C147.702 17.4406 153.202 16.1606 157.722 16.1606C163.832 16.1606 168.192 18.5006 161.762 26.7106C180.722 14.2906 180.202 8.89062 172.262 8.89062Z"></path>
<path fill="white" d="M36.7487 54.4703H35.4688V48.3203H38.9888V49.3903H36.7487V50.9703H38.8288V52.0303H36.7487V54.4603V54.4703Z"></path>
<path fill="white" d="M49.1881 51.3922C49.1881 52.4122 48.9381 53.1922 48.4281 53.7422C47.9181 54.2922 47.1981 54.5622 46.2581 54.5622C45.3181 54.5622 44.5981 54.2922 44.0881 53.7422C43.5781 53.1922 43.3281 52.4122 43.3281 51.3922C43.3281 50.3722 43.5781 49.5922 44.0881 49.0522C44.5981 48.5122 45.3181 48.2422 46.2681 48.2422C47.2181 48.2422 47.9381 48.5122 48.4381 49.0622C48.9381 49.6022 49.1881 50.3922 49.1881 51.4122V51.3922ZM44.7081 51.3922C44.7081 52.0822 44.8381 52.5922 45.0981 52.9422C45.3581 53.2922 45.7481 53.4622 46.2681 53.4622C47.3081 53.4622 47.8281 52.7722 47.8281 51.3922C47.8281 50.0122 47.3081 49.3122 46.2781 49.3122C45.7581 49.3122 45.3681 49.4822 45.1081 49.8322C44.8481 50.1822 44.7081 50.7022 44.7081 51.3822V51.3922Z"></path>
<path fill="white" d="M55.2297 52.1103V54.4703H53.9297V48.3203H55.7197C56.5597 48.3203 57.1697 48.4703 57.5697 48.7803C57.9697 49.0803 58.1697 49.5503 58.1697 50.1703C58.1697 50.5303 58.0697 50.8503 57.8697 51.1303C57.6697 51.4103 57.3897 51.6303 57.0297 51.7903L58.8397 54.4703H57.3897L55.9197 52.1103H55.2297ZM55.2297 51.0503H55.6497C56.0597 51.0503 56.3697 50.9803 56.5597 50.8403C56.7597 50.7003 56.8497 50.4903 56.8497 50.1903C56.8497 49.8903 56.7497 49.6903 56.5497 49.5703C56.3497 49.4503 56.0397 49.3903 55.6197 49.3903H55.2197V51.0503H55.2297Z"></path>
<path fill="white" d="M65.8188 54.4703L64.3387 49.6503H64.2987C64.3487 50.6303 64.3788 51.2903 64.3788 51.6103V54.4703H63.2188V48.3203H64.9887L66.4388 53.0203H66.4688L68.0088 48.3203H69.7787V54.4703H68.5688V51.5603C68.5688 51.4203 68.5688 51.2603 68.5688 51.0903C68.5688 50.9103 68.5888 50.4303 68.6288 49.6603H68.5887L67.0088 54.4703H65.8188Z"></path>
<path fill="white" d="M79.79 48.3203V52.3003C79.79 52.7503 79.69 53.1503 79.49 53.4903C79.29 53.8303 78.99 54.0903 78.61 54.2803C78.23 54.4603 77.77 54.5503 77.25 54.5503C76.46 54.5503 75.85 54.3503 75.41 53.9403C74.97 53.5403 74.75 52.9803 74.75 52.2803V48.3203H76.05V52.0803C76.05 52.5503 76.15 52.9003 76.34 53.1203C76.53 53.3403 76.85 53.4503 77.29 53.4503C77.73 53.4503 78.02 53.3403 78.22 53.1203C78.41 52.9003 78.51 52.5503 78.51 52.0703V48.3203H79.81H79.79Z"></path>
<path fill="white" d="M84.7522 54.4703V48.3203H86.0522V53.3903H88.5422V54.4703H84.7422H84.7522Z"></path>
<path fill="white" d="M97.2353 54.4747L96.7853 53.0147H94.5453L94.0953 54.4747H92.6953L94.8653 48.3047H96.4553L98.6353 54.4747H97.2353ZM96.4753 51.9147C96.0653 50.5847 95.8353 49.8347 95.7753 49.6647C95.7253 49.4947 95.6853 49.3547 95.6653 49.2547C95.5753 49.6147 95.3053 50.5047 94.8753 51.9147H96.4753Z"></path>
<path fill="white" d="M110.287 54.4703H108.987V50.9103C108.987 50.8403 108.987 50.7503 108.987 50.6503C108.987 50.5503 108.987 50.4403 108.987 50.3303C108.987 50.2203 108.987 50.1103 108.997 50.0003C108.997 49.8903 108.997 49.7903 109.007 49.6903C108.997 49.7103 108.967 49.7303 108.937 49.7703C108.907 49.8103 108.867 49.8403 108.827 49.8803C108.787 49.9203 108.737 49.9603 108.697 50.0003C108.657 50.0403 108.607 50.0803 108.567 50.1103L107.857 50.6803L107.227 49.9003L109.207 48.3203H110.277V54.4703H110.287Z"></path>
<path fill="white" d="M125.908 54.4681H124.608V49.4081H122.938V48.3281H127.577V49.4081H125.908V54.4681Z"></path>
<path fill="white" d="M135.571 54.4703H132.031V48.3203H135.571V49.3903H133.331V50.7403H135.411V51.8103H133.331V53.3903H135.571V54.4703Z"></path>
<path fill="white" d="M144.36 54.4669L143.91 53.0069H141.67L141.22 54.4669H139.82L141.99 48.2969H143.58L145.76 54.4669H144.36ZM143.6 51.9069C143.19 50.5769 142.96 49.8269 142.9 49.6569C142.85 49.4869 142.81 49.3469 142.79 49.2469C142.7 49.6069 142.43 50.4969 142 51.9069H143.6Z"></path>
<path fill="white" d="M152.741 54.4703L151.261 49.6503H151.221C151.271 50.6303 151.301 51.2903 151.301 51.6103V54.4703H150.141V48.3203H151.911L153.361 53.0203H153.391L154.931 48.3203H156.701V54.4703H155.491V51.5603C155.491 51.4203 155.491 51.2603 155.491 51.0903C155.491 50.9103 155.511 50.4303 155.551 49.6603H155.511L153.931 54.4703H152.741Z"></path>
<path fill="white" d="M113.522 51.9678C113.252 51.9678 113.002 51.9178 112.782 51.8278C112.552 51.7378 112.362 51.6078 112.192 51.4378C112.032 51.2678 111.902 51.0778 111.812 50.8478C111.722 50.6278 111.672 50.3778 111.672 50.1178C111.672 49.8578 111.722 49.6078 111.812 49.3778C111.902 49.1478 112.042 48.9578 112.202 48.7878C112.372 48.6278 112.562 48.4978 112.792 48.3978C113.022 48.2978 113.262 48.2578 113.512 48.2578C113.762 48.2578 114.022 48.3078 114.242 48.3978C114.462 48.4978 114.662 48.6278 114.832 48.7978C115.002 48.9678 115.132 49.1678 115.222 49.3878C115.312 49.6078 115.362 49.8478 115.362 50.0978C115.362 50.3478 115.312 50.6078 115.222 50.8278C115.132 51.0478 115.002 51.2478 114.832 51.4178C114.662 51.5878 114.472 51.7178 114.242 51.8078C114.022 51.8978 113.772 51.9478 113.512 51.9478L113.522 51.9678ZM113.522 51.7678C113.752 51.7678 113.972 51.7278 114.172 51.6378C114.372 51.5578 114.542 51.4378 114.692 51.2878C114.842 51.1378 114.952 50.9578 115.042 50.7578C115.122 50.5578 115.172 50.3478 115.172 50.1178C115.172 49.8878 115.132 49.6778 115.052 49.4778C114.972 49.2778 114.852 49.1078 114.712 48.9478C114.562 48.7978 114.392 48.6778 114.192 48.5878C113.992 48.4978 113.772 48.4578 113.542 48.4578C113.312 48.4578 113.092 48.4978 112.892 48.5778C112.692 48.6578 112.522 48.7778 112.372 48.9278C112.222 49.0778 112.112 49.2478 112.022 49.4478C111.942 49.6478 111.902 49.8678 111.902 50.0978C111.902 50.3278 111.942 50.5378 112.022 50.7378C112.102 50.9378 112.212 51.1078 112.362 51.2678C112.512 51.4178 112.682 51.5378 112.882 51.6278C113.082 51.7178 113.302 51.7578 113.542 51.7578L113.522 51.7678ZM112.912 51.1478V49.0878H113.502C113.732 49.0878 113.902 49.1378 114.022 49.2378C114.142 49.3378 114.202 49.4878 114.202 49.6878C114.202 49.8378 114.162 49.9578 114.082 50.0578C114.002 50.1478 113.912 50.2178 113.792 50.2578L114.342 51.1678H114.062L113.562 50.3178H113.152V51.1678H112.912V51.1478ZM113.152 50.0978H113.482C113.622 50.0978 113.742 50.0678 113.832 49.9978C113.922 49.9278 113.972 49.8278 113.972 49.6978C113.972 49.5678 113.932 49.4578 113.842 49.3978C113.752 49.3378 113.642 49.3078 113.492 49.3078H113.152V50.1078V50.0978Z"></path>
<path fill="white" d="M335.832 9.74041C331.767 9.74041 327.947 11.3189 325.074 14.1868C322.207 17.0496 320.631 20.8539 320.639 24.8945C320.639 33.2438 327.454 40.0355 335.832 40.0355H340.141V32.012H335.832C331.893 32.012 328.69 28.8196 328.69 24.8945C328.69 20.9694 331.893 17.7771 335.832 17.7771C337.621 17.7771 339.334 18.4429 340.656 19.651C341.932 20.8184 342.934 22.3811 342.934 24.104V53.1017H350.985V24.8945C350.985 16.5388 344.187 9.74041 335.832 9.74041Z"></path>
<path fill="white" d="M303.193 9.74041H303.19C294.511 9.74041 287.45 16.7737 287.45 25.4183C287.45 34.0628 294.511 41.0961 303.19 41.0961C311.869 41.0961 318.931 34.0628 318.931 25.4156C318.916 16.7873 311.856 9.75535 303.193 9.74041ZM310.583 25.4183C310.583 29.479 307.267 32.7817 303.19 32.7817C299.113 32.7817 295.797 29.479 295.797 25.4183C295.797 21.3575 299.113 18.0548 303.19 18.0548C307.267 18.0548 310.583 21.3575 310.583 25.4183Z"></path>
<path fill="white" d="M266.043 23.973C266.078 23.0472 266.157 22.149 266.334 21.2376L266.338 21.2192C266.562 20.1447 266.904 19.1111 267.352 18.1444C268.287 16.1652 269.665 14.4213 271.344 13.0944C272.989 11.8016 274.916 10.839 276.917 10.3076C277.899 10.0354 278.915 9.86051 279.94 9.78686C282.207 9.6251 284.449 9.8776 286.584 10.6733C287.374 10.9678 288.163 11.3413 288.901 11.7674L290.151 12.4907L286.143 19.4346L284.892 18.7402C284.025 18.2589 283.089 17.9643 282.108 17.8643C281.082 17.7723 280.021 17.8643 279.026 18.1352C278.084 18.3864 277.185 18.8401 276.424 19.4477C275.711 20.0198 275.136 20.7497 274.764 21.5545C274.362 22.4225 274.211 23.3786 274.211 24.3281V40.0368H266.043V23.973Z"></path>
<path fill="white" d="M263.203 24.5023C263.104 20.5296 261.479 16.812 258.627 14.0347C255.777 11.26 252.015 9.72664 248.035 9.71875H247.906C239.593 9.71875 232.792 16.4346 232.719 24.7508C232.684 28.8011 234.229 32.6239 237.071 35.5156C239.914 38.4087 243.711 40.0209 247.777 40.0564H252.41V32.0216H248.011C246.104 32.0479 244.302 31.322 242.939 29.9925C241.574 28.6617 240.81 26.8785 240.789 24.9704C240.746 21.0372 243.907 17.8009 247.84 17.7536H248.03C251.956 17.7536 255.168 20.9543 255.19 24.881V38.9065C255.19 42.7885 252.018 45.984 248.118 46.0339C246.25 46.0195 244.494 45.2804 243.174 43.9496L242.15 42.9186L242.146 42.9226L238.03 50.1631C240.777 52.6604 244.296 54.0411 248.03 54.0687H248.235C252.238 54.0122 255.993 52.4171 258.81 49.5753C261.624 46.7349 263.186 42.9673 263.207 38.9591V24.5036L263.203 24.5023Z"></path>
<path fill="white" d="M139.768 85.4983C139.768 85.9963 139.705 86.4493 139.579 86.8573C139.459 87.2593 139.273 87.6073 139.021 87.9013C138.775 88.1953 138.457 88.4203 138.067 88.5763C137.683 88.7323 137.23 88.8103 136.708 88.8103C136.186 88.8103 135.73 88.7323 135.34 88.5763C134.956 88.4143 134.638 88.1893 134.386 87.9013C134.14 87.6073 133.954 87.2563 133.828 86.8483C133.708 86.4403 133.648 85.9873 133.648 85.4893C133.648 84.8233 133.756 84.2443 133.972 83.7523C134.194 83.2603 134.53 82.8793 134.98 82.6093C135.436 82.3333 136.015 82.1953 136.717 82.1953C137.413 82.1953 137.986 82.3333 138.436 82.6093C138.886 82.8793 139.219 83.2633 139.435 83.7613C139.657 84.2533 139.768 84.8323 139.768 85.4983ZM135.079 85.4983C135.079 85.9483 135.136 86.3353 135.25 86.6593C135.364 86.9833 135.541 87.2323 135.781 87.4063C136.021 87.5803 136.33 87.6673 136.708 87.6673C137.098 87.6673 137.41 87.5803 137.644 87.4063C137.884 87.2323 138.058 86.9833 138.166 86.6593C138.28 86.3353 138.337 85.9483 138.337 85.4983C138.337 84.8203 138.211 84.2893 137.959 83.9053C137.707 83.5213 137.293 83.3293 136.717 83.3293C136.333 83.3293 136.021 83.4163 135.781 83.5903C135.541 83.7643 135.364 84.0133 135.25 84.3373C135.136 84.6613 135.079 85.0483 135.079 85.4983Z"></path>
<path fill="white" d="M145.501 88.7203H144.16V82.2943H147.841V83.4103H145.501V85.0663H147.679V86.1823H145.501V88.7203Z"></path>
<path fill="white" d="M153.5 88.7203H152.159V82.2943H155.84V83.4103H153.5V85.0663H155.678V86.1823H153.5V88.7203Z"></path>
<path fill="white" d="M162.561 88.7203H159.636V87.9463L160.419 87.5863V83.4283L159.636 83.0683V82.2943H162.561V83.0683L161.778 83.4283V87.5863L162.561 87.9463V88.7203Z"></path>
<path fill="white" d="M169.443 83.3383C169.185 83.3383 168.954 83.3893 168.75 83.4913C168.552 83.5933 168.384 83.7403 168.246 83.9323C168.108 84.1183 168.003 84.3463 167.931 84.6163C167.865 84.8863 167.832 85.1893 167.832 85.5253C167.832 85.9813 167.886 86.3713 167.994 86.6953C168.108 87.0133 168.285 87.2563 168.525 87.4243C168.765 87.5923 169.071 87.6763 169.443 87.6763C169.707 87.6763 169.968 87.6463 170.226 87.5863C170.49 87.5263 170.775 87.4423 171.081 87.3343V88.4773C170.799 88.5913 170.52 88.6753 170.244 88.7293C169.968 88.7833 169.659 88.8103 169.317 88.8103C168.657 88.8103 168.111 88.6753 167.679 88.4053C167.253 88.1293 166.938 87.7453 166.734 87.2533C166.53 86.7553 166.428 86.1763 166.428 85.5163C166.428 85.0303 166.494 84.5863 166.626 84.1843C166.758 83.7763 166.95 83.4253 167.202 83.1313C167.46 82.8373 167.775 82.6093 168.147 82.4473C168.525 82.2853 168.957 82.2043 169.443 82.2043C169.761 82.2043 170.079 82.2463 170.397 82.3303C170.721 82.4083 171.03 82.5163 171.324 82.6543L170.883 83.7613C170.643 83.6473 170.4 83.5483 170.154 83.4643C169.914 83.3803 169.677 83.3383 169.443 83.3383Z"></path>
<path fill="white" d="M177.91 88.7203H174.985V87.9463L175.768 87.5863V83.4283L174.985 83.0683V82.2943H177.91V83.0683L177.127 83.4283V87.5863L177.91 87.9463V88.7203Z"></path>
<path fill="white" d="M185.998 88.7203L185.53 87.1903H183.19L182.722 88.7203H181.255L183.523 82.2673H185.188L187.465 88.7203H185.998ZM184.738 84.5533C184.708 84.4513 184.669 84.3223 184.621 84.1663C184.573 84.0103 184.525 83.8513 184.477 83.6893C184.429 83.5273 184.39 83.3863 184.36 83.2663C184.33 83.3863 184.288 83.5363 184.234 83.7163C184.186 83.8903 184.138 84.0583 184.09 84.2203C184.048 84.3763 184.015 84.4873 183.991 84.5533L183.532 86.0473H185.206L184.738 84.5533Z"></path>
<path fill="white" d="M191.339 88.7203V82.2943H192.698V87.5953H195.308V88.7203H191.339Z"></path>
<path fill="white" d="M206.938 82.2943C207.766 82.2943 208.369 82.4743 208.747 82.8343C209.131 83.1883 209.323 83.6773 209.323 84.3013C209.323 84.5833 209.281 84.8533 209.197 85.1113C209.113 85.3633 208.972 85.5913 208.774 85.7953C208.582 85.9933 208.327 86.1493 208.009 86.2633C207.691 86.3773 207.298 86.4343 206.83 86.4343H206.245V88.7203H204.886V82.2943H206.938ZM206.866 83.4103H206.245V85.3183H206.695C206.953 85.3183 207.175 85.2853 207.361 85.2193C207.547 85.1533 207.691 85.0483 207.793 84.9043C207.895 84.7603 207.946 84.5743 207.946 84.3463C207.946 84.0283 207.859 83.7943 207.685 83.6443C207.511 83.4883 207.238 83.4103 206.866 83.4103Z"></path>
<path fill="white" d="M217.082 88.7203L216.614 87.1903H214.274L213.806 88.7203H212.339L214.607 82.2673H216.272L218.549 88.7203H217.082ZM215.822 84.5533C215.792 84.4513 215.753 84.3223 215.705 84.1663C215.657 84.0103 215.609 83.8513 215.561 83.6893C215.513 83.5273 215.474 83.3863 215.444 83.2663C215.414 83.3863 215.372 83.5363 215.318 83.7163C215.27 83.8903 215.222 84.0583 215.174 84.2203C215.132 84.3763 215.099 84.4873 215.075 84.5533L214.616 86.0473H216.29L215.822 84.5533Z"></path>
<path fill="white" d="M224.295 82.2943C224.877 82.2943 225.357 82.3663 225.735 82.5103C226.113 82.6483 226.395 82.8613 226.581 83.1493C226.767 83.4313 226.86 83.7883 226.86 84.2203C226.86 84.5143 226.803 84.7723 226.689 84.9943C226.581 85.2103 226.434 85.3963 226.248 85.5523C226.068 85.7023 225.873 85.8253 225.663 85.9213L227.553 88.7203H226.041L224.511 86.2543H223.782V88.7203H222.423V82.2943H224.295ZM224.196 83.4103H223.782V85.1473H224.223C224.523 85.1473 224.766 85.1143 224.952 85.0483C225.138 84.9823 225.273 84.8833 225.357 84.7513C225.441 84.6133 225.483 84.4483 225.483 84.2563C225.483 84.0523 225.435 83.8903 225.339 83.7703C225.249 83.6443 225.108 83.5543 224.916 83.5003C224.73 83.4403 224.49 83.4103 224.196 83.4103Z"></path>
<path fill="white" d="M233.899 88.7203H232.54V83.4283H230.794V82.2943H235.645V83.4283H233.899V88.7203Z"></path>
<path fill="white" d="M245.393 88.7203H243.665L240.866 83.8603H240.83C240.836 84.0103 240.842 84.1633 240.848 84.3193C240.854 84.4693 240.86 84.6223 240.866 84.7783C240.878 84.9283 240.887 85.0813 240.893 85.2373C240.899 85.3873 240.905 85.5403 240.911 85.6963V88.7203H239.696V82.2943H241.415L244.205 87.1093H244.232C244.226 86.9593 244.22 86.8123 244.214 86.6683C244.208 86.5183 244.202 86.3713 244.196 86.2273C244.196 86.0773 244.193 85.9303 244.187 85.7863C244.181 85.6363 244.175 85.4863 244.169 85.3363V82.2943H245.393V88.7203Z"></path>
<path fill="white" d="M253.776 88.7203H250.077V82.2943H253.776V83.4103H251.436V84.8233H253.614V85.9393H251.436V87.5953H253.776V88.7203Z"></path>
<path fill="white" d="M260.045 82.2943C260.627 82.2943 261.107 82.3663 261.485 82.5103C261.863 82.6483 262.145 82.8613 262.331 83.1493C262.517 83.4313 262.61 83.7883 262.61 84.2203C262.61 84.5143 262.553 84.7723 262.439 84.9943C262.331 85.2103 262.184 85.3963 261.998 85.5523C261.818 85.7023 261.623 85.8253 261.413 85.9213L263.303 88.7203H261.791L260.261 86.2543H259.532V88.7203H258.173V82.2943H260.045ZM259.946 83.4103H259.532V85.1473H259.973C260.273 85.1473 260.516 85.1143 260.702 85.0483C260.888 84.9823 261.023 84.8833 261.107 84.7513C261.191 84.6133 261.233 84.4483 261.233 84.2563C261.233 84.0523 261.185 83.8903 261.089 83.7703C260.999 83.6443 260.858 83.5543 260.666 83.5003C260.48 83.4403 260.24 83.4103 259.946 83.4103Z"></path>
</svg>
