<svg xmlns="http://www.w3.org/2000/svg" fill="none" viewBox="0 0 41 40" height="40" width="41">
<g clip-path="url(#clip0_813_613)">
<path fill="black" d="M20.5 37.6433C10.8567 37.6433 2.92833 29.6433 2.92833 20C2.92833 18 3.285 16.0717 3.92833 14.215L14.215 34.215C14.3567 34.5 14.5 34.715 14.8567 34.715C15.215 34.715 15.3567 34.5 15.5 34.215L20.285 23.5717C20.3561 23.4283 20.4278 23.3567 20.5 23.3567C20.6433 23.3567 20.6433 23.5 20.715 23.5717L25.5717 34.215C25.715 34.5 25.8567 34.715 26.215 34.715C26.5717 34.715 26.715 34.5 26.8567 34.215L37.1433 14.215C37.785 16 38.1433 17.9283 38.1433 20C38.0717 29.6433 30.1433 37.6433 20.5 37.6433ZM20.5 15.4283C20.3567 15.4283 20.3567 15.285 20.285 15.215L14.785 3.35667C18.4789 2.02636 22.5211 2.02636 26.215 3.35667L20.715 15.215C20.6433 15.285 20.6433 15.4283 20.5 15.4283ZM14.715 28.285C14.5717 28.285 14.5717 28.1433 14.5 28.0717L5.5 10.7833C7.07167 8.21333 9.35667 6.07 12 4.57L18.3567 18.2833C18.5 18.57 18.6433 18.6417 18.8567 18.6417H22.1433C22.3567 18.6417 22.5 18.57 22.6433 18.2833L28.9283 4.57C31.5717 6.07 33.8567 8.21333 35.4283 10.7833L26.5 28.0717C26.4278 28.2139 26.3561 28.285 26.285 28.285C26.1433 28.285 26.1433 28.1433 26.0717 28.0717L22.6433 20.5C22.5 20.215 22.3567 20.1433 22.1433 20.1433H18.8567C18.6433 20.1433 18.5 20.215 18.3567 20.5L14.9283 28.0717C14.8567 28.1433 14.8567 28.285 14.715 28.285ZM20.5 40C31.5717 40 40.5 31.0717 40.5 20C40.5 8.92833 31.5717 0 20.5 0C9.42833 0 0.5 8.92833 0.5 20C0.5 31.0717 9.42833 40 20.5 40Z"></path>
</g>
<defs>
<clipPath id="clip0_813_613">
<rect transform="translate(0.5)" fill="white" height="40" width="40"></rect>
</clipPath>
</defs>
</svg>
