<svg xmlns="http://www.w3.org/2000/svg" fill="none" viewBox="0 0 74 35" height="35" width="74">
<g clip-path="url(#clip0_1164_241)">
<path fill="black" d="M51.8574 17.2321H50.4264C50.1377 17.2321 49.9803 17.3913 49.9803 17.6836V22.6763C49.424 21.8643 48.53 21.4146 47.4331 21.4146C44.907 21.4146 43.4008 23.2381 43.4008 26.3881C43.4008 29.5363 44.8983 31.3581 47.4244 31.3581C48.544 31.3581 49.459 30.8856 50.0188 30.0771L50.1762 30.7946C50.2235 31.0641 50.4001 31.1988 50.6695 31.1988H51.8556C52.1443 31.1988 52.3017 31.0431 52.3017 30.7508V17.6836C52.3035 17.3896 52.1496 17.2321 51.8574 17.2321ZM47.8967 29.6221C46.6477 29.6221 45.8184 28.5668 45.8184 26.6558V26.1168C45.8184 24.2093 46.6424 23.1506 47.8967 23.1506C49.3033 23.1506 50.0205 24.1621 50.0205 26.3898C50.0205 28.6176 49.305 29.6221 47.8967 29.6221Z" clip-rule="evenodd" fill-rule="evenodd"></path>
<path fill="black" d="M54.7158 24.1131C55.0744 22.4506 56.5929 21.4164 58.5837 21.4164C61.1326 21.4164 62.4062 22.7446 62.4079 25.0581V30.7491C62.4079 31.0379 62.254 31.1971 61.9618 31.1971H60.7757C60.5063 31.1971 60.3261 31.0624 60.2824 30.7929L60.1477 30.0754C59.5914 30.8839 58.6729 31.3564 57.5341 31.3564C55.6342 31.3564 54.3851 30.2276 54.3851 28.4741C54.3851 26.4284 55.8161 25.3731 58.8356 25.3731H60.0847V25.0126C60.0847 23.7754 59.5686 23.1454 58.5872 23.1454C57.8035 23.1454 57.3574 23.4831 57.1335 24.2041C57.0425 24.4981 56.885 24.6084 56.6401 24.6084H55.1181C54.8067 24.6084 54.6493 24.4071 54.7158 24.1131ZM58.1848 29.6239C59.3237 29.6239 60.0847 28.9309 60.0847 27.2649V26.9499H58.9213C57.5113 26.9499 56.7993 27.4224 56.7976 28.3884C56.7993 29.1531 57.3574 29.6239 58.1848 29.6239Z" clip-rule="evenodd" fill-rule="evenodd"></path>
<path fill="black" d="M2.88116 31.2006C2.6135 31.2006 2.45605 31.0886 2.36858 30.8191C1.31543 27.8966 0.601672 24.9933 -0.000125566 22.0708C-0.0683525 21.7786 0.0663522 21.5756 0.377748 21.5756H1.83151C2.10092 21.5756 2.27761 21.7103 2.32485 21.9571C2.70272 24.0273 3.15232 26.1623 3.75586 28.2553L5.49827 21.9571C5.56475 21.7103 5.74319 21.5756 6.01085 21.5756H7.97894C8.2466 21.5756 8.42504 21.7103 8.49151 21.9571L10.2339 28.2553C10.8375 26.1641 11.2871 24.0273 11.665 21.9571C11.7087 21.7103 11.8906 21.5756 12.1583 21.5756H13.6121C13.9234 21.5756 14.0564 21.7768 13.9899 22.0708C13.3881 24.9933 12.6744 27.8966 11.6212 30.8191C11.5302 31.0886 11.3763 31.2006 11.1086 31.2006H9.47118C9.22626 31.2006 9.02508 31.0886 8.9586 30.8191L6.99227 23.8908L5.02593 30.8191C4.95946 31.0886 4.75827 31.2006 4.51336 31.2006H2.88116Z"></path>
<path fill="black" d="M19.7996 21.4198C17.0722 21.4198 15.1724 23.399 15.1724 26.3898C15.1724 29.3805 17.0722 31.3598 19.7996 31.3598C22.527 31.3598 24.4268 29.3578 24.4268 26.3898C24.4268 23.4218 22.527 21.4198 19.7996 21.4198ZM22.0109 26.6576C22.0109 28.6368 21.1397 29.762 19.7996 29.762C18.4596 29.762 17.5884 28.6368 17.5884 26.6576V26.1185C17.5884 24.1393 18.4596 23.014 19.7996 23.014C21.1397 23.014 22.0109 24.1393 22.0109 26.1185V26.6576Z" clip-rule="evenodd" fill-rule="evenodd"></path>
<path fill="black" d="M67.4248 30.9944C65.9938 28.5444 64.7569 25.3979 63.9767 22.0711C63.9102 21.7544 64.0677 21.5759 64.3808 21.5776H65.8346C66.1022 21.5776 66.2824 21.7124 66.3262 21.9819C66.795 24.3216 67.5333 26.5931 68.4709 28.4814C69.2984 26.4111 70.0594 24.2534 70.4618 21.9819C70.5072 21.7124 70.6857 21.5776 70.9533 21.5776H72.4508C72.7622 21.5776 72.9197 21.7806 72.8287 22.0939C71.8001 26.2099 70.3253 29.7834 69.0517 32.5274C68.2243 34.3036 67.2621 35.0019 65.5197 35.0019C65.1855 35.0019 64.8304 34.9336 64.5383 34.8671C64.2706 34.8006 64.1604 34.6186 64.1604 34.3719V33.2921C64.1604 32.9771 64.3423 32.8634 64.6537 32.9544C64.9214 33.0209 65.189 33.0646 65.434 33.0646C66.4626 33.0646 66.8212 32.3909 67.4248 30.9944Z"></path>
<path fill="black" d="M28.7212 22.7904C29.2128 22.0012 30.084 21.4622 31.0899 21.4622C31.4695 21.4622 31.8037 21.5532 32.0731 21.7562C32.164 21.8244 32.2305 21.9154 32.2305 22.0502V23.3784C32.2305 23.6917 32.0976 23.7827 31.7617 23.6479C31.4888 23.5324 31.2211 23.4887 30.9097 23.4887C29.5487 23.4887 28.7649 24.4564 28.7649 25.8529L28.7667 30.7564C28.7667 31.0452 28.6127 31.2009 28.3206 31.2009H26.8861C26.5974 31.2009 26.44 31.0469 26.44 30.7529L26.4382 22.0257C26.4382 21.7369 26.5922 21.5777 26.8843 21.5777H28.0704C28.3626 21.5777 28.52 21.7352 28.5638 21.9819L28.7212 22.7904Z"></path>
<path fill="black" d="M42.1337 30.6637C41.1523 28.6407 40.2129 27.2459 38.8938 25.9632L41.9798 22.1394C42.2037 21.8227 42.0935 21.576 41.7349 21.576H40.1272C39.9033 21.576 39.7021 21.6635 39.5674 21.8227L36.4377 25.8249V17.6857C36.4377 17.3916 36.2802 17.2341 35.9881 17.2341H34.5571C34.2684 17.2341 34.111 17.3934 34.111 17.6857V30.7529C34.111 31.0435 34.2649 31.2009 34.5571 31.2009H35.9881C36.2767 31.2009 36.4342 31.0452 36.4342 30.7529L36.4377 26.3464C37.8232 27.6939 38.7836 29.1324 39.5866 30.9314C39.6776 31.0907 39.898 31.2009 40.1219 31.2009H41.8871C42.244 31.2027 42.3122 31.0242 42.1337 30.6637Z"></path>
<path fill="black" d="M20.5174 9.13456C24.9014 4.74206 30.734 2.32356 36.9409 2.32356C43.1355 2.32356 48.9611 4.73681 53.3416 9.11881C55.8467 11.6248 57.7064 14.6015 58.8417 17.8513C58.8907 17.9913 59.0202 18.084 59.1689 18.084H60.8903C61.1247 18.084 61.2944 17.8565 61.2209 17.6325C59.9946 13.8438 57.8795 10.3736 54.9843 7.47556C50.1664 2.65431 43.7583 0.000732422 36.9444 0.000732422C30.1182 0.000732422 23.6978 2.66131 18.8747 7.49306C15.9847 10.3876 13.8766 13.8525 12.6538 17.6325C12.5821 17.8565 12.75 18.084 12.9862 18.084H14.7076C14.8563 18.084 14.9858 17.9895 15.0348 17.8513C16.1649 14.6103 18.0193 11.6371 20.5174 9.13456Z"></path>
</g>
<defs>
<clipPath id="clip0_1164_241">
<rect fill="white" height="35" width="74"></rect>
</clipPath>
</defs>
</svg>
