<svg xmlns="http://www.w3.org/2000/svg" fill="none" viewBox="0 0 108 31" height="31" width="108">
<g clip-path="url(#clip0_813_714)">
<path fill="black" d="M18.4749 0.560547L0.5 8.87795L4.97861 25.9052L8.38742 25.4856L7.4506 14.7801L8.56874 14.282L10.5028 25.2259L16.3292 24.5135L15.2927 12.694L16.4018 12.2019L18.5262 24.2417L24.4191 23.5202L23.2859 10.5656L24.4071 10.0674L26.731 23.2364L32.5574 22.5209V4.08374L18.4749 0.560547Z"></path>
<path fill="black" d="M18.8979 26.388L19.1941 28.0635L32.5574 30.2885V24.7124L18.904 26.3849L18.8979 26.388Z"></path>
<path fill="black" d="M45.1985 22.889V25.1864H48.0301C48.0291 25.6519 47.9084 26.1093 47.6796 26.5148C47.4403 26.9184 47.0856 27.2412 46.6612 27.4416C46.1538 27.6744 45.5995 27.7871 45.0414 27.7707C44.3994 27.7866 43.7675 27.6088 43.2282 27.2605C42.6993 26.8943 42.2912 26.3794 42.0556 25.7812C41.7625 25.0326 41.6228 24.2329 41.6446 23.4294C41.6227 22.6316 41.7668 21.8379 42.0677 21.0987C42.3108 20.5062 42.7214 19.9974 43.2493 19.6345C43.7801 19.2899 44.4025 19.1131 45.0353 19.1273C45.3652 19.1237 45.6939 19.1674 46.0114 19.2571C46.2942 19.3365 46.561 19.4642 46.8002 19.6345C47.0277 19.8 47.2241 20.0044 47.3804 20.2383C47.5452 20.4862 47.6706 20.7581 47.7521 21.0443H50.895C50.812 20.3854 50.5972 19.7499 50.2634 19.1756C49.9321 18.608 49.4963 18.1081 48.979 17.7023C48.4357 17.2784 47.822 16.9534 47.1658 16.7422C46.4576 16.5121 45.7167 16.3979 44.9719 16.4041C44.1003 16.396 43.2353 16.5559 42.4243 16.8751C41.6453 17.1849 40.9408 17.6562 40.3573 18.2578C39.7472 18.8938 39.2758 19.6494 38.9732 20.4768C38.6283 21.4349 38.4603 22.4476 38.4776 23.4656C38.4436 24.7619 38.7268 26.0469 39.3026 27.2092C39.8207 28.2185 40.6192 29.0571 41.6023 29.6244C42.6018 30.1571 43.7123 30.4484 44.8448 30.4752C45.9773 30.5019 47.1003 30.2633 48.1238 29.7784C49.0063 29.326 49.7405 28.6303 50.2392 27.7737C50.7741 26.8198 51.0404 25.739 51.0098 24.646V22.8708L45.1985 22.889Z"></path>
<path fill="black" d="M84.3274 30.3131V16.5977H93.7319V19.1336H87.431V22.1828H92.5261V24.7188H87.431V27.7741H93.747V30.3131H84.3274Z"></path>
<path fill="black" d="M102.861 20.6307C102.847 20.3949 102.783 20.1649 102.672 19.9565C102.561 19.748 102.406 19.5661 102.217 19.4231C101.752 19.1103 101.197 18.9586 100.637 18.9914C100.249 18.9806 99.862 19.0441 99.4977 19.1786C99.2226 19.2785 98.9808 19.4531 98.7996 19.6827C98.6434 19.8933 98.5587 20.1482 98.5578 20.4103C98.5482 20.6212 98.5985 20.8305 98.7029 21.0141C98.811 21.1949 98.9601 21.348 99.138 21.4609C99.3486 21.5966 99.5749 21.7061 99.812 21.787C100.088 21.8836 100.369 21.9632 100.655 22.0255L101.864 22.3063C102.455 22.4304 103.032 22.6176 103.583 22.8648C104.063 23.078 104.505 23.3653 104.895 23.7161C105.251 24.0412 105.535 24.4371 105.729 24.8785C105.934 25.355 106.037 25.8692 106.031 26.388C106.052 27.1717 105.827 27.9423 105.388 28.5919C104.923 29.2354 104.282 29.7305 103.541 30.0168C102.618 30.3732 101.633 30.5436 100.643 30.518C99.6378 30.5395 98.638 30.3652 97.6996 30.0048C96.9091 29.6985 96.229 29.1621 95.7474 28.4651C95.2583 27.6981 95.0041 26.8052 95.016 25.8959H98.0048C98.0158 26.3009 98.1461 26.6936 98.3795 27.025C98.6114 27.3324 98.9258 27.5679 99.2861 27.7043C99.707 27.8625 100.154 27.9394 100.604 27.9307C101.015 27.9399 101.425 27.8734 101.813 27.7345C102.12 27.6256 102.393 27.4357 102.601 27.185C102.786 26.9532 102.886 26.6659 102.885 26.3699C102.888 26.1075 102.797 25.8529 102.628 25.6513C102.42 25.4238 102.161 25.2481 101.873 25.1381C101.467 24.9725 101.047 24.8422 100.619 24.7486L99.1501 24.3924C98.1311 24.1891 97.1788 23.7358 96.379 23.0731C96.0401 22.7655 95.7738 22.3865 95.5993 21.9637C95.4247 21.5408 95.3463 21.0845 95.3696 20.6277C95.349 19.839 95.5867 19.0652 96.0465 18.4238C96.5291 17.7728 97.1784 17.2638 97.9262 16.9505C98.7859 16.5865 99.7124 16.4065 100.646 16.4222C101.58 16.4003 102.508 16.5805 103.366 16.9505C104.097 17.2634 104.726 17.7762 105.179 18.4298C105.613 19.0826 105.841 19.8502 105.835 20.6337L102.861 20.6307Z"></path>
<path fill="black" d="M82.1153 30.3131H79.045V19.8854L78.7307 19.8823L75.6301 30.3131H72.5628L69.5438 19.8823L69.1539 19.8854V30.3131H66.0806V16.5977H71.2996L73.9347 25.7876H74.2551L76.8903 16.5977H82.1153V30.3131Z"></path>
<path fill="black" d="M61.2542 30.3096H64.5784L59.9699 16.5942H55.7512L51.1335 30.3096H54.4577L55.3643 27.2906H60.3476L61.2542 30.3096ZM56.0806 24.9116L57.5916 19.8819H58.1536L59.6646 24.9116H56.0806Z"></path>
<path fill="black" d="M106.778 18.0433C106.681 18.0435 106.586 18.024 106.497 17.9859C106.323 17.9122 106.184 17.7736 106.11 17.5995C106.073 17.51 106.054 17.4141 106.054 17.3172C106.054 17.2204 106.073 17.1244 106.11 17.0349C106.184 16.861 106.323 16.7225 106.497 16.6485C106.586 16.6114 106.682 16.5923 106.779 16.5923C106.876 16.5923 106.972 16.6114 107.062 16.6485C107.236 16.7225 107.375 16.861 107.449 17.0349C107.486 17.1244 107.505 17.2204 107.505 17.3172C107.505 17.4141 107.486 17.51 107.449 17.5995C107.375 17.7735 107.236 17.912 107.062 17.9859C106.973 18.024 106.877 18.0435 106.781 18.0433M106.781 17.8471C106.874 17.8477 106.966 17.8227 107.047 17.7746C107.125 17.7284 107.191 17.6629 107.237 17.5844C107.284 17.5037 107.309 17.4121 107.309 17.3187C107.309 17.2254 107.284 17.1337 107.237 17.0531C107.191 16.9746 107.125 16.9091 107.047 16.8629C106.966 16.8162 106.874 16.7917 106.781 16.7917C106.688 16.7917 106.596 16.8162 106.515 16.8629C106.436 16.9092 106.371 16.9746 106.325 17.0531C106.278 17.1338 106.253 17.2255 106.253 17.3187C106.253 17.412 106.278 17.5036 106.325 17.5844C106.371 17.6629 106.436 17.7284 106.515 17.7746C106.595 17.8227 106.687 17.8477 106.781 17.8471ZM106.515 17.6448V16.9776H106.838C106.882 16.9765 106.926 16.9858 106.965 17.0048C107 17.0213 107.029 17.0475 107.05 17.0802C107.071 17.1168 107.082 17.1587 107.08 17.201C107.082 17.2433 107.071 17.2853 107.05 17.3218C107.029 17.3549 106.998 17.3811 106.962 17.3972C106.922 17.4154 106.879 17.4246 106.835 17.4244H106.618V17.2946H106.802C106.826 17.2952 106.85 17.2866 106.869 17.2704C106.877 17.2618 106.884 17.2513 106.888 17.2399C106.892 17.2284 106.894 17.2162 106.893 17.204C106.894 17.1919 106.892 17.1796 106.888 17.1682C106.884 17.1567 106.877 17.1463 106.869 17.1376C106.85 17.1228 106.826 17.1153 106.802 17.1165H106.702V17.6508L106.515 17.6448ZM106.95 17.3429L107.098 17.6448H106.887L106.751 17.3429H106.95Z"></path>
<path fill="black" d="M54.9989 0.687012H51.8953V14.4024H54.9989V0.687012Z"></path>
<path fill="black" d="M69.7371 7.54357C69.7781 8.87144 69.4829 10.1882 68.8789 11.3717C68.3483 12.3756 67.5408 13.2065 66.5519 13.7658C65.5349 14.3076 64.4 14.591 63.2474 14.591C62.0947 14.591 60.9598 14.3076 59.9428 13.7658C58.9514 13.2002 58.1437 12.3619 57.6159 11.3506C57.0556 10.157 56.7662 8.85448 56.7683 7.53618C56.7704 6.21789 57.0639 4.91633 57.6279 3.72451C58.1583 2.7205 58.9659 1.88959 59.9549 1.33043C60.9723 0.789658 62.107 0.506836 63.2594 0.506836C64.4119 0.506836 65.5466 0.789658 66.564 1.33043C67.5529 1.88973 68.3604 2.7206 68.8909 3.72451C69.4949 4.90809 69.7901 6.22477 69.7492 7.55263M66.5912 7.55263C66.6142 6.74663 66.4766 5.9441 66.1863 5.19175C65.9557 4.60071 65.5537 4.09191 65.0318 3.73055C64.4994 3.40437 63.887 3.23172 63.2625 3.23172C62.6379 3.23172 62.0255 3.40437 61.4931 3.73055C60.9709 4.09227 60.568 4.60086 60.3357 5.19175C59.7904 6.71853 59.7904 8.38673 60.3357 9.9135C60.5678 10.5045 60.9707 11.0131 61.4931 11.3747C62.0255 11.7009 62.6379 11.8735 63.2625 11.8735C63.887 11.8735 64.4994 11.7009 65.0318 11.3747C65.5538 11.0135 65.9558 10.5046 66.1863 9.9135C66.4766 9.16115 66.6142 8.35862 66.5912 7.55263Z"></path>
<path fill="black" d="M45.3768 9.62058L46.9694 14.4027H50.3752L48.6043 9.25226H46.1867L46.0416 8.80846C46.7289 8.71146 47.3885 8.47296 47.9787 8.10805C48.4665 7.77797 48.8664 7.33414 49.1439 6.81495C49.4214 6.29575 49.5681 5.71683 49.5713 5.12827C49.5889 4.31437 49.3797 3.51159 48.9669 2.80967C48.569 2.12875 47.9765 1.58209 47.2655 1.23977C46.4321 0.851173 45.5195 0.662011 44.6001 0.687298H39.085V14.4027H42.1886V9.62058H45.3768ZM45.3193 6.7827C44.8968 6.93753 44.4486 7.01029 43.9987 6.99705H42.1855V3.20516H43.9987C44.4494 3.19132 44.8983 3.26727 45.3193 3.42856C45.6518 3.56115 45.9326 3.79724 46.1202 4.10181C46.3114 4.40914 46.4062 4.76666 46.3922 5.12827C46.407 5.48387 46.3132 5.83555 46.1232 6.13663C45.9344 6.43273 45.6544 6.6595 45.3254 6.7827"></path>
<path fill="black" d="M70.0181 0.687012V3.22299H75.3489L75.4939 3.66678C74.8227 3.76266 74.1775 3.99156 73.5961 4.34003V14.3964H76.6665V3.22601H80.2385V0.690034L70.0181 0.687012Z"></path>
</g>
<defs>
<clipPath id="clip0_813_714">
<rect transform="translate(0.5 0.5)" fill="white" height="30" width="107"></rect>
</clipPath>
</defs>
</svg>
