<svg xmlns="http://www.w3.org/2000/svg" fill="none" viewBox="0 0 113 31" height="31" width="113">
<g clip-path="url(#clip0_813_728)">
<mask height="31" width="113" y="0" x="0" maskUnits="userSpaceOnUse" style="mask-type:luminance" id="mask0_813_728">
<path fill="white" d="M0.5 0.5H112.5V30.5H0.5V0.5Z"></path>
</mask>
<g mask="url(#mask0_813_728)">
<path fill="black" d="M8.2504 10.64C5.57733 10.64 4.26768 13.004 4.26768 16.1615V24.074H0.5V7.3775H4.20048V11.7095H4.26469C5.05616 9.0455 6.63163 6.8945 9.06128 6.8945C10.7697 6.8945 11.4909 7.493 11.4909 7.493L9.78853 10.9325C9.78853 10.9295 9.24795 10.64 8.2504 10.64ZM53.7911 12.932V24.0725H50.1205V14.288C50.1205 11.48 49.2439 9.992 47.0024 9.992C44.6833 9.992 43.5603 11.873 43.5603 15.482V24.071H39.924V14.288C39.924 11.588 39.0579 9.992 36.8388 9.992C34.3076 9.992 33.3324 12.221 33.3324 15.482V24.071H29.6319V7.376H33.3324V11.1575H33.3653C33.9417 8.5415 35.5157 6.9275 38.1708 6.9275C40.8051 6.9275 42.5209 8.348 43.172 10.868C43.7917 8.4425 45.4419 6.926 47.9775 6.926C51.5167 6.926 53.7911 9.155 53.7911 12.932ZM18.8949 6.893C15.4901 6.893 13.2605 8.4995 12.2451 11.4005L15.3796 12.545C15.95 10.796 17.1417 9.8 18.9606 9.8C21.0065 9.8 22.2086 10.7045 22.2086 12.092C22.2086 13.5125 21.2529 13.8095 19.0905 14.1605C16.6862 14.549 10.9713 14.6765 10.9713 19.52C10.9713 22.358 13.3337 24.4925 16.8819 24.4925C19.549 24.4925 21.3663 23.3975 22.2071 21.359H22.2399V24.074H25.9091V13.802C25.9091 9.3095 23.6571 6.893 18.8949 6.893ZM22.3042 16.214C22.3042 19.715 20.5794 21.9635 17.8242 21.9635C15.8739 21.9635 14.7061 20.8655 14.7061 19.2815C14.7061 17.7965 15.9067 16.7645 18.2124 16.34C20.5719 15.905 21.7591 15.368 22.3042 14.0795V16.214ZM66.8443 6.926C64.0368 6.926 62.1836 8.4755 61.3892 10.8035V7.3775H57.4916V30.5H61.3563V20.648H61.3892C62.2493 23.1695 64.0398 24.557 66.8443 24.557C71.293 24.557 74.4753 20.876 74.4753 15.6755C74.4753 10.511 71.293 6.926 66.8443 6.926ZM65.8856 21.458C62.8049 21.458 61.0965 19.2125 61.0965 15.725C61.0965 12.2375 63.0079 9.992 65.8856 9.992C68.7618 9.992 70.6762 12.347 70.6762 15.725C70.6762 19.1045 68.7647 21.458 65.8856 21.458ZM112.757 23.9975V24.1025L97.6742 24.107V23.9975C99.85 22.763 101.351 21.5075 102.702 20.1935H108.895L112.757 23.9975ZM109.021 4.265L105.198 0.5H105.086C105.086 0.5 105.15 7.52 98.7315 13.904C92.4505 20.153 85.0645 20.1665 85.0645 20.1665V20.276L88.9591 24.1085C88.9591 24.1085 96.2376 24.1805 102.668 17.846C109.074 11.531 109.021 4.265 109.021 4.265Z"></path>
</g>
</g>
<defs>
<clipPath id="clip0_813_728">
<rect transform="translate(0.5 0.5)" fill="white" height="30" width="112"></rect>
</clipPath>
</defs>
</svg>
