<svg xmlns="http://www.w3.org/2000/svg" fill="none" viewBox="0 0 95 30" height="30" width="95">
<g clip-path="url(#clip0_813_615)">
<path fill="black" d="M93.8467 20.5051C93.6869 20.5051 93.5412 20.608 93.466 20.8232C92.5025 23.5594 91.2006 25.1871 90.129 25.1871C89.5133 25.1871 89.2642 24.5042 89.2642 23.4331C89.2642 20.753 90.8763 15.0702 91.6894 12.479C91.7834 12.1656 91.8445 11.8849 91.8445 11.6464C91.8445 10.8934 91.4309 10.5239 90.4063 10.5239C89.3018 10.5239 88.1127 10.9542 86.9565 12.9701C86.557 11.1927 85.3491 10.4163 83.6618 10.4163C81.7113 10.4163 79.8266 11.6651 78.2756 13.6904C76.7246 15.7156 74.901 16.3798 73.5286 16.0524C74.5156 13.6483 74.8822 11.8522 74.8822 10.5192C74.8822 8.42844 73.8435 7.16558 72.1656 7.16558C69.6135 7.16558 68.1424 9.5884 68.1424 12.1375C68.1424 14.1066 69.0401 16.1319 71.0141 17.1141C69.3597 20.8372 66.9439 24.2049 66.0274 24.2049C64.843 24.2049 64.4952 18.4378 64.561 14.3124C64.6033 11.9457 64.8007 11.8241 64.8007 11.1085C64.8007 10.6969 64.5328 10.4163 63.4565 10.4163C60.9467 10.4163 60.1712 12.5304 60.0537 14.9579C60.0158 15.8804 59.8707 16.7954 59.6213 17.6848C58.5732 21.4079 56.4112 24.2329 55.0012 24.2329C54.3479 24.2329 54.1693 23.5828 54.1693 22.7315C54.1693 20.0515 55.678 16.7025 55.678 13.8447C55.678 11.7446 54.7521 10.4163 53.0084 10.4163C50.9545 10.4163 48.2379 12.8485 45.667 17.4041C46.513 13.9149 46.8608 10.5379 44.3557 10.5379C43.8122 10.546 43.2787 10.6839 42.8 10.9401C42.6393 11.0149 42.5049 11.1361 42.4144 11.2879C42.3239 11.4398 42.2814 11.6152 42.2924 11.7914C42.5321 15.5051 39.2844 25.0187 36.2059 25.0187C35.6466 25.0187 35.374 24.4153 35.374 23.4425C35.374 20.7577 36.9814 15.0889 37.7898 12.493C37.8932 12.1562 37.9496 11.8662 37.9496 11.6137C37.9496 10.9027 37.5078 10.5379 36.5067 10.5379C35.4069 10.5379 34.2131 10.9542 33.0616 12.9701C32.6574 11.1927 31.4495 10.4163 29.7622 10.4163C26.9939 10.4163 23.9013 13.3302 22.543 17.1282C20.7241 22.1983 17.0581 27.0954 12.1231 27.0954C7.644 27.0954 5.2799 23.3863 5.2799 17.5257C5.2799 9.06455 11.5215 2.15154 16.151 2.15154C18.3647 2.15154 19.4222 3.55472 19.4222 5.70627C19.4222 8.31151 17.9605 9.52292 17.9605 10.5145C17.9605 10.8185 18.2143 11.1179 18.7172 11.1179C20.7288 11.1179 23.0976 8.7652 23.0976 5.55659C23.0976 2.34799 20.4797 0 15.8502 0C8.1986 0 0.5 7.66137 0.5 17.479C0.5 25.29 4.3728 30 11.0703 30C15.6387 30 19.629 26.464 21.7816 22.3386C22.026 25.7577 23.5864 27.5444 25.9646 27.5444C28.0796 27.5444 29.7904 26.2909 31.097 24.0879C31.5999 26.3938 32.9347 27.521 34.669 27.521C36.6571 27.521 38.3209 26.2675 39.9048 23.9383C39.8813 25.7671 40.2996 27.4883 41.8929 27.4883C42.6449 27.4883 43.5426 27.3152 43.7024 26.6604C45.3803 19.7568 49.5257 14.1207 50.7947 14.1207C51.1707 14.1207 51.2741 14.4808 51.2741 14.9065C51.2741 16.782 49.944 20.6268 49.944 23.0823C49.944 25.7343 51.0767 27.4883 53.4173 27.4883C56.0117 27.4883 58.6484 24.3265 60.4062 19.7053C60.9561 24.0224 62.1452 27.507 64.0064 27.507C66.2906 27.507 70.3467 22.7222 72.8048 17.6567C73.7683 17.7783 75.2159 17.7456 76.6071 16.768C76.0149 18.2601 75.6671 19.8924 75.6671 21.5248C75.6671 26.2254 77.9231 27.5444 79.8642 27.5444C81.9745 27.5444 83.6853 26.2909 84.9966 24.0879C85.429 26.0758 86.5335 27.5164 88.5639 27.5164C91.7411 27.5164 94.5 24.2844 94.5 21.6324C94.5 20.9308 94.1992 20.5051 93.8467 20.5051ZM27.901 24.9392C26.6179 24.9392 26.115 23.6529 26.115 21.7353C26.115 18.4051 28.4039 12.8438 30.8244 12.8438C31.8819 12.8438 32.2814 14.0833 32.2814 15.5987C32.2814 18.9804 30.1053 24.9392 27.901 24.9392ZM71.8507 15C71.0846 14.0926 70.8073 12.8578 70.8073 11.7587C70.8073 10.4022 71.3055 9.25631 71.9024 9.25631C72.4993 9.25631 72.6826 9.84097 72.6826 10.6548C72.6826 12.0159 72.1938 14.0037 71.8507 15ZM81.8006 24.9392C80.5175 24.9392 80.0146 23.4612 80.0146 21.7353C80.0146 18.522 82.3035 12.8438 84.7428 12.8438C85.8003 12.8438 86.1763 14.0739 86.1763 15.5987C86.1763 18.9804 84.0378 24.9392 81.8006 24.9392Z"></path>
</g>
<defs>
<clipPath id="clip0_813_615">
<rect transform="translate(0.5)" fill="white" height="30" width="94"></rect>
</clipPath>
</defs>
</svg>
