<svg xmlns="http://www.w3.org/2000/svg" fill="none" viewBox="0 0 152 30" height="30" width="152">
<path fill="black" d="M8.95922 0L0 5.625L8.95922 11.25L17.9199 5.625L26.8791 11.25L35.8385 5.625L26.8791 0L17.9199 5.625L8.95922 0Z"></path>
<path fill="black" d="M8.95922 22.5001L0 16.8751L8.95922 11.25L17.9199 16.8751L8.95922 22.5001Z"></path>
<path fill="black" d="M17.9199 16.8751L26.8791 11.25L35.8385 16.8751L26.8791 22.5001L17.9199 16.8751Z"></path>
<path fill="black" d="M17.9199 30L8.95922 24.375L17.9199 18.75L26.8791 24.375L17.9199 30Z"></path>
<path fill="black" d="M42.1987 5.5455H49.3286C53.888 5.5455 57.6116 8.18993 57.6116 14.189V15.471C57.6116 21.4925 54.0981 24.2173 49.4358 24.2173H42.1987V5.5455ZM46.1817 8.92696V20.7911H49.2482C51.8137 20.7911 53.5707 19.0892 53.5707 15.346V14.3766C53.5707 10.6334 51.7648 8.93146 49.1139 8.93146H46.1817V8.92696ZM59.7301 9.11014H62.8995L63.3955 12.6211C63.999 10.2135 65.5458 8.98057 68.3482 8.98057H69.3183V12.9874H67.6958C64.446 12.9874 63.6595 14.1131 63.6595 17.3069V24.2218H59.7301V9.11014ZM70.1588 16.9898V16.5699C70.1588 11.491 73.4085 8.76618 77.8114 8.76618C82.3172 8.76618 85.4373 11.5401 85.4373 16.5699V16.9898C85.4373 21.9659 82.3708 24.6104 77.8114 24.6104C72.939 24.6104 70.1588 21.9659 70.1588 16.9898ZM81.4546 16.9362V16.5699C81.4546 13.7423 80.0375 12.094 77.8114 12.094C75.6121 12.094 74.1414 13.6396 74.1414 16.5699V16.9362C74.1414 19.661 75.5317 21.1798 77.7846 21.1798C80.0418 21.1798 81.4546 19.6878 81.4546 16.9362ZM87.5068 9.11014H90.8102L91.2036 11.9913C92.0169 10.0526 93.6934 8.77064 96.1832 8.77064C100.036 8.77064 102.553 11.5446 102.553 16.628V17.0479C102.553 22.024 99.7503 24.6148 96.1832 24.6148C93.7738 24.6148 92.1734 23.5428 91.3601 21.7873V29.4079H87.5068V9.11014ZM98.5658 16.963V16.6235C98.5658 13.6128 97.019 12.1208 94.9494 12.1208C92.7501 12.1208 91.2794 13.7959 91.2794 16.5967V16.887C91.2794 19.5583 92.6965 21.2334 94.869 21.2334C97.1262 21.2334 98.5658 19.7414 98.5658 16.963ZM108.342 21.4701L108.029 24.2218H104.622V4.05357H108.476V11.8037C109.316 9.83825 110.992 8.76618 113.375 8.76618C116.964 8.79296 119.637 11.281 119.637 16.3064V16.753C119.637 21.7828 117.121 24.6104 113.268 24.6104C110.778 24.6104 109.155 23.4088 108.342 21.4701ZM115.681 16.753V16.3867C115.681 13.6128 114.162 12.094 112.065 12.094C109.888 12.094 108.395 13.8495 108.395 16.4404V16.753C108.395 19.5806 109.834 21.2066 112.011 21.2066C114.291 21.2066 115.681 19.7414 115.681 16.753ZM121.394 16.9898V16.5699C121.394 11.491 124.617 8.76618 129.02 8.76618C133.526 8.76618 136.673 11.5401 136.673 16.5699V16.9898C136.673 21.9659 133.579 24.6104 129.02 24.6104C124.143 24.6104 121.394 21.9659 121.394 16.9898ZM132.685 16.9362V16.5699C132.685 13.7423 131.268 12.094 129.042 12.094C126.843 12.094 125.372 13.6396 125.372 16.5699V16.9362C125.372 19.661 126.762 21.1798 129.015 21.1798C131.3 21.1798 132.685 19.6878 132.685 16.9362ZM141.809 16.3867L136.516 9.10564H141.049L144.115 13.6351L147.208 9.10564H151.714L146.341 16.36L152 24.2173H147.544L144.057 19.2143L140.678 24.2173H136.064L141.809 16.3867Z"></path>
</svg>
