<svg xmlns="http://www.w3.org/2000/svg" fill="none" viewBox="0 0 158 31" height="31" width="158">
<g clip-path="url(#clip0_813_700)">
<path fill="black" d="M55.8126 10.979C51.7154 10.979 49.2048 13.6273 49.2048 18.2819C49.2048 22.9365 51.7154 25.5647 55.8126 25.5647C59.9098 25.5647 62.4003 22.9164 62.4003 18.2819C62.4003 13.6474 59.95 10.979 55.8126 10.979ZM55.8126 23.438C53.2217 23.438 52.1773 21.3114 52.1773 18.3019C52.1974 15.2524 53.2217 13.1458 55.8126 13.1458C58.4035 13.1458 59.4479 15.2524 59.4479 18.2819C59.4479 21.3114 58.4035 23.438 55.8126 23.438Z"></path>
<path fill="black" d="M93.3503 10.979C91.3217 10.979 90.1368 11.9019 89.253 13.0856C89.1325 13.226 89.0321 13.3665 88.8313 13.3665C88.6304 13.3665 88.4698 13.226 88.4698 12.9452V11.2599H85.8186V25.3039H88.6304V17.5596C88.6304 15.0518 89.9761 13.2662 92.0849 13.2662C94.0733 13.2662 95.0574 14.4098 95.0574 16.8975V25.3039H97.8693V16.1552C97.8693 12.9251 96.4031 10.979 93.3503 10.979Z"></path>
<path fill="black" d="M108.373 10.9788C106.486 10.9788 105.26 11.8214 104.437 12.8848C104.316 13.0252 104.216 13.1656 104.015 13.1656C103.814 13.1656 103.654 13.0252 103.654 12.7443V5.20068H100.842V25.3037H103.654V17.5594C103.654 15.0515 104.999 13.266 107.108 13.266C109.096 13.266 110.081 14.4095 110.081 16.8973V25.3037H112.892V16.155C112.892 12.9249 111.426 10.9788 108.373 10.9788Z"></path>
<path fill="black" d="M121.669 10.979C117.572 10.979 115.062 13.6273 115.062 18.2819C115.062 22.9365 117.572 25.5647 121.669 25.5647C125.767 25.5647 128.257 22.9164 128.257 18.2819C128.237 13.6273 125.807 10.979 121.669 10.979ZM121.669 23.438C119.078 23.438 118.034 21.3114 118.034 18.3019C118.034 15.2925 119.078 13.1659 121.669 13.1659C124.26 13.1659 125.305 15.2725 125.305 18.3019C125.284 21.2913 124.26 23.438 121.669 23.438Z"></path>
<path fill="black" d="M136.411 10.979C132.314 10.979 129.803 13.6273 129.803 18.2819C129.803 22.9365 132.314 25.5647 136.411 25.5647C140.508 25.5647 142.999 22.9164 142.999 18.2819C142.999 13.6474 140.549 10.979 136.411 10.979ZM136.411 23.438C133.82 23.438 132.776 21.3114 132.776 18.3019C132.776 15.2925 133.82 13.1659 136.411 13.1659C139.002 13.1659 140.047 15.2725 140.047 18.3019C140.047 21.3314 139.002 23.438 136.411 23.438Z"></path>
<path fill="black" d="M82.7659 11.2598H79.9541V25.3038H82.7659V11.2598Z"></path>
<path fill="black" d="M82.8462 5.20068H79.8335V8.41074H82.8462V5.20068Z"></path>
<path fill="black" d="M154.688 5.20068V12.3832C154.688 12.6641 154.527 12.8045 154.327 12.8045C154.186 12.8045 153.985 12.6641 153.905 12.5838C152.901 11.5205 151.816 10.9788 150.109 10.9788C147.076 10.9788 144.606 13.3061 144.606 18.2817C144.606 23.2573 147.076 25.5645 150.109 25.5645C151.876 25.5645 152.981 24.8824 154.045 23.819C154.206 23.6585 154.327 23.5582 154.467 23.5582C154.668 23.5582 154.829 23.6986 154.829 23.9795V25.3037H157.5V5.20068H154.688ZM151.173 23.4178C148.582 23.4378 147.538 21.2911 147.538 18.2817C147.538 15.2722 148.582 13.1456 151.173 13.1456C153.764 13.1456 154.809 15.2522 154.809 18.2817C154.809 21.3112 153.804 23.4178 151.173 23.4178Z"></path>
<path fill="black" d="M72.1211 10.9788C70.4139 10.9788 69.3293 11.5205 68.3251 12.5838C68.2448 12.6641 68.0439 12.8045 67.9033 12.8045C67.7025 12.8045 67.5418 12.6641 67.5418 12.3832V5.20068H64.73V25.3037H67.3811V23.9795C67.3811 23.6986 67.5418 23.5582 67.7426 23.5582C67.8832 23.5582 68.0037 23.6385 68.1644 23.819C69.2289 24.8824 70.3335 25.5645 72.101 25.5645C75.1337 25.5645 77.6242 23.2573 77.6242 18.2817C77.6242 13.3061 75.1538 10.9788 72.1211 10.9788ZM71.0365 23.4378C68.4255 23.4378 67.4012 21.3112 67.4012 18.3017C67.4012 15.2923 68.4054 13.1656 71.0365 13.1656C73.6676 13.1656 74.6718 15.2722 74.6718 18.3017C74.6718 21.2911 73.6274 23.4378 71.0365 23.4378Z"></path>
<path fill="black" d="M44.7861 16.3557C44.5652 16.2754 44.4848 16.135 44.4848 15.9544C44.4848 15.7538 44.5652 15.6735 44.8263 15.5331C46.3527 14.8108 47.2766 13.3663 47.2766 11.4001C47.2766 7.94933 45.1074 5.86279 40.7491 5.86279H33.2375V25.3037H36.21V17.2786H41.0102C43.2798 17.2786 44.043 18.2416 44.1032 19.8065L44.3844 25.3037H47.3167L47.0155 19.6059C46.895 17.7199 46.1518 16.8572 44.7861 16.3557ZM40.5483 14.9713H36.21V8.23021H40.5483C42.7977 8.23021 44.1836 9.33367 44.1836 11.6008C44.1836 13.8679 42.7977 14.9713 40.5483 14.9713Z"></path>
<path fill="black" d="M15.3544 7.26709H9.2487C9.02777 7.26709 8.84099 7.35537 8.68633 7.54797L4.30793 12.9649C3.66523 13.7675 3.50455 14.5098 3.50455 15.5731V21.1105C2.07856 25.103 1.17476 27.8115 0.511972 30.2591C0.471803 30.4156 0.532057 30.4999 0.672648 30.4999H1.33543C1.45594 30.4999 1.57645 30.4397 1.61662 30.3394C6.61764 17.6195 12.0605 11.3198 15.4749 7.54797C15.6155 7.38747 15.5552 7.26709 15.3544 7.26709Z"></path>
<path fill="black" d="M15.5351 1.02761C15.1254 1.18611 14.7318 1.45495 14.551 1.60943C12.7434 3.15427 11.5383 4.37811 10.3935 5.58188C10.2529 5.72232 10.3132 5.86276 10.514 5.86276H17.2825C17.9051 5.86276 18.2666 6.22389 18.2666 6.84584V14.4697C18.2666 14.6704 18.4273 14.7305 18.5478 14.55L22.6249 9.23332C23.2877 8.37062 23.4886 8.1098 23.6693 6.90603C23.9103 5.1405 23.7697 2.43201 22.7053 1.30849C21.7613 0.305347 17.5034 0.265221 15.5351 1.02761Z"></path>
<path fill="black" d="M16.5595 8.79193C12.3619 13.4666 9.08814 18.382 6.05539 24.3005C5.97907 24.449 6.07547 24.5814 6.25623 24.5212L12.5226 22.5952C13.2295 22.3785 13.6272 22.0936 13.9687 21.5318L16.7604 16.9374C16.8206 16.8171 16.8407 16.6766 16.8407 16.5763V8.9123C16.8407 8.71167 16.7001 8.63142 16.5595 8.79193Z"></path>
</g>
<defs>
<clipPath id="clip0_813_700">
<rect transform="translate(0.5 0.5)" fill="white" height="30" width="157"></rect>
</clipPath>
</defs>
</svg>
