<svg width="140" height="140" viewBox="0 0 140 140" fill="none" xmlns="http://www.w3.org/2000/svg">
<ellipse cx="69.9409" cy="69.8225" rx="18.2869" ry="18.2869" transform="rotate(180 69.9409 69.8225)" fill="#24C8DB"/>
<path d="M129.645 69.8229C135.168 69.8229 139.719 74.3226 138.93 79.7889C137.449 90.0602 133.69 99.916 127.878 108.614C120.206 120.097 109.301 129.046 96.5426 134.331C83.7842 139.615 69.7451 140.998 56.2009 138.304C42.6566 135.61 30.2154 128.96 20.4505 119.195C10.6857 109.43 4.03571 96.9888 1.34159 83.4446C-1.35252 69.9003 0.030202 55.8613 5.31492 43.1029C10.5996 30.3444 19.549 19.4396 31.0313 11.7674C39.7295 5.95547 49.5853 2.19631 59.8566 0.71506C65.3229 -0.0732497 69.8227 4.47736 69.8226 10.0002L69.8226 10.7582C69.8226 16.281 65.3001 20.6558 59.8916 21.7737C53.7327 23.0467 47.8446 25.4985 42.5638 29.0271C34.4951 34.4184 28.2064 42.0812 24.4928 51.0466C20.7792 60.012 19.8076 69.8773 21.7007 79.3949C23.5939 88.9125 28.2668 97.655 35.1287 104.517C41.9905 111.379 50.733 116.052 60.2506 117.945C69.7682 119.838 79.6334 118.866 88.5988 115.153C97.5642 111.439 105.227 105.15 110.618 97.0817C114.147 91.8009 116.599 85.9128 117.872 79.7539C118.99 74.3454 123.364 69.8229 128.887 69.8229L129.645 69.8229Z" fill="#24C8DB"/>
</svg>
