<svg width="490" height="192" viewBox="0 0 490 192" fill="none" xmlns="http://www.w3.org/2000/svg">
<path d="M248.537 143.197C247.634 143.197 246.821 142.881 246.098 142.249C245.466 141.526 245.15 140.713 245.15 139.81V69.6267H221.033C220.129 69.6267 219.317 69.3106 218.594 68.6783C217.962 67.9557 217.646 67.1427 217.646 66.2395V51.7421C217.646 50.7485 217.962 49.9356 218.594 49.3033C219.317 48.671 220.129 48.3549 221.033 48.3549H293.926C294.92 48.3549 295.732 48.671 296.365 49.3033C296.997 49.9356 297.313 50.7485 297.313 51.7421V66.2395C297.313 67.2331 296.997 68.046 296.365 68.6783C295.732 69.3106 294.92 69.6267 293.926 69.6267H269.809V139.81C269.809 140.713 269.493 141.526 268.86 142.249C268.228 142.881 267.415 143.197 266.422 143.197H248.537Z" fill="#0F0F0F"/>
<path d="M294.548 143.197C293.826 143.197 293.148 142.926 292.516 142.384C291.974 141.752 291.703 141.075 291.703 140.352C291.703 139.81 291.748 139.404 291.839 139.133L323.678 52.1486C323.949 51.0647 324.537 50.1614 325.44 49.4388C326.343 48.7162 327.517 48.3549 328.963 48.3549H349.015C350.46 48.3549 351.634 48.7162 352.538 49.4388C353.441 50.1614 354.028 51.0647 354.299 52.1486L386.004 139.133L386.275 140.352C386.275 141.075 385.958 141.752 385.326 142.384C384.784 142.926 384.107 143.197 383.294 143.197H366.629C364.461 143.197 363.016 142.249 362.293 140.352L357.009 126.532H320.833L315.685 140.352C314.962 142.249 313.472 143.197 311.214 143.197H294.548ZM351.589 107.022L338.989 71.2526L326.388 107.022H351.589Z" fill="#0F0F0F"/>
<path d="M433.719 144.552C420.983 144.552 410.957 141.436 403.64 135.203C396.324 128.971 392.44 119.803 391.988 107.699C391.898 105.08 391.853 101.196 391.853 96.0471C391.853 90.8082 391.898 86.879 391.988 84.2595C392.44 72.3365 396.369 63.1684 403.776 56.7552C411.273 50.2517 421.254 47 433.719 47C446.184 47 456.165 50.2517 463.662 56.7552C471.159 63.1684 475.088 72.3365 475.45 84.2595C475.63 89.4984 475.721 93.4276 475.721 96.0471C475.721 98.5762 475.63 102.46 475.45 107.699C474.998 119.803 471.114 128.971 463.798 135.203C456.481 141.436 446.455 144.552 433.719 144.552ZM433.719 125.042C438.687 125.042 442.616 123.551 445.507 120.571C448.487 117.59 450.068 113.028 450.249 106.886C450.429 101.647 450.52 97.9439 450.52 95.7761C450.52 93.4276 450.429 89.7243 450.249 84.666C450.068 78.5238 448.487 73.9624 445.507 70.9816C442.526 68.0008 438.597 66.5104 433.719 66.5104C428.841 66.5104 424.912 68.0008 421.931 70.9816C419.041 73.9624 417.46 78.5238 417.189 84.666C417.099 87.1951 417.054 90.8985 417.054 95.7761C417.054 100.563 417.099 104.267 417.189 106.886C417.46 113.028 419.041 117.59 421.931 120.571C424.822 123.551 428.751 125.042 433.719 125.042Z" fill="#0F0F0F"/>
<ellipse cx="82.9409" cy="95.8225" rx="18.2869" ry="18.2869" transform="rotate(180 82.9409 95.8225)" fill="#0F0F0F"/>
<path d="M142.645 95.8229C148.168 95.8229 152.719 100.323 151.93 105.789C150.449 116.06 146.69 125.916 140.878 134.614C133.206 146.097 122.301 155.046 109.543 160.331C96.7842 165.615 82.7451 166.998 69.2009 164.304C55.6566 161.61 43.2154 154.96 33.4505 145.195C23.6857 135.43 17.0357 122.989 14.3416 109.445C11.6475 95.9003 13.0302 81.8613 18.3149 69.1029C23.5996 56.3444 32.549 45.4396 44.0313 37.7674C52.7295 31.9555 62.5853 28.1963 72.8566 26.7151C78.3229 25.9268 82.8227 30.4774 82.8226 36.0002L82.8226 36.7582C82.8226 42.281 78.3001 46.6558 72.8916 47.7737C66.7327 49.0467 60.8446 51.4985 55.5638 55.0271C47.4951 60.4184 41.2064 68.0812 37.4928 77.0466C33.7792 86.012 32.8076 95.8773 34.7007 105.395C36.5939 114.912 41.2668 123.655 48.1287 130.517C54.9905 137.379 63.733 142.052 73.2506 143.945C82.7682 145.838 92.6334 144.866 101.599 141.153C110.564 137.439 118.227 131.15 123.618 123.082C127.147 117.801 129.599 111.913 130.872 105.754C131.99 100.345 136.364 95.8229 141.887 95.8229L142.645 95.8229Z" fill="#0F0F0F"/>
</svg>
