<svg width="140" height="141" viewBox="0 0 140 141" fill="none" xmlns="http://www.w3.org/2000/svg">
<ellipse cx="69.9409" cy="70.7507" rx="18.2869" ry="18.2869" transform="rotate(180 69.9409 70.7507)" fill="#0F0F0F"/>
<path d="M129.645 70.7511C135.168 70.7511 139.719 75.2509 138.93 80.7172C137.449 90.9885 133.69 100.844 127.878 109.542C120.206 121.025 109.301 129.974 96.5426 135.259C83.7842 140.544 69.7451 141.926 56.2009 139.232C42.6566 136.538 30.2154 129.888 20.4505 120.123C10.6857 110.358 4.03571 97.917 1.34159 84.3728C-1.35252 70.8285 0.030202 56.7895 5.31492 44.0311C10.5996 31.2727 19.549 20.3679 31.0313 12.6957C39.7295 6.8837 49.5853 3.12454 59.8566 1.64328C65.3229 0.854973 69.8227 5.40558 69.8226 10.9284L69.8226 11.6864C69.8226 17.2093 65.3001 21.5841 59.8916 22.702C53.7327 23.975 47.8446 26.4267 42.5638 29.9553C34.4951 35.3466 28.2064 43.0094 24.4928 51.9748C20.7792 60.9402 19.8076 70.8055 21.7007 80.3231C23.5939 89.8407 28.2668 98.5832 35.1287 105.445C41.9905 112.307 50.733 116.98 60.2506 118.873C69.7682 120.766 79.6334 119.795 88.5988 116.081C97.5642 112.367 105.227 106.079 110.618 98.01C114.147 92.7291 116.599 86.8411 117.872 80.6821C118.99 75.2736 123.364 70.7511 128.887 70.7511L129.645 70.7511Z" fill="#0F0F0F"/>
</svg>
