<svg width="140" height="140" viewBox="0 0 140 140" fill="none" xmlns="http://www.w3.org/2000/svg">
<path d="M9.99997 69.8228C4.47712 69.8228 -0.073479 65.3231 0.714834 59.8568C2.19609 49.5855 5.95526 39.7297 11.7672 31.0315C19.4394 19.5492 30.3442 10.5998 43.1027 5.31514C55.8611 0.0304279 69.9001 -1.35229 83.4444 1.34183C96.9886 4.03595 109.43 10.6859 119.195 20.4508C128.96 30.2157 135.61 42.6569 138.304 56.2011C140.998 69.7454 139.615 83.7844 134.33 96.5428C129.046 109.301 120.096 120.206 108.614 127.878C99.9158 133.69 90.06 137.449 79.7887 138.931C74.3224 139.719 69.8226 135.168 69.8226 129.646L69.8226 128.888C69.8226 123.365 74.3452 118.99 79.7537 117.872C85.9126 116.599 91.8006 114.147 97.0815 110.619C105.15 105.227 111.439 97.5645 115.152 88.5991C118.866 79.6337 119.838 69.7684 117.945 60.2508C116.051 50.7332 111.378 41.9907 104.517 35.1289C97.6548 28.2671 88.9123 23.5941 79.3947 21.701C69.8771 19.8078 60.0118 20.7794 51.0464 24.493C42.081 28.2066 34.4181 34.4953 29.0268 42.564C25.4983 47.8448 23.0465 53.7329 21.7735 59.8918C20.6556 65.3003 16.2808 69.8228 10.758 69.8228L9.99997 69.8228Z" fill="#FFC131"/>
<ellipse cx="69.9404" cy="69.8225" rx="18.2869" ry="18.2869" transform="rotate(180 69.9404 69.8225)" fill="#FFC131"/>
</svg>
