<svg width="140" height="140" viewBox="0 0 140 140" fill="none" xmlns="http://www.w3.org/2000/svg">
<path d="M9.99997 69.8419C4.47712 69.8419 -0.073479 65.3421 0.714834 59.8758C2.19609 49.6045 5.95526 39.7487 11.7672 31.0505C19.4394 19.5682 30.3442 10.6189 43.1027 5.33418C55.8611 0.0494709 69.9001 -1.33325 83.4444 1.36087C96.9886 4.055 109.43 10.705 119.195 20.4698C128.96 30.2347 135.61 42.6759 138.304 56.2202C140.998 69.7644 139.615 83.8035 134.33 96.5619C129.046 109.32 120.096 120.225 108.614 127.897C99.9158 133.709 90.06 137.468 79.7887 138.95C74.3224 139.738 69.8226 135.187 69.8226 129.665L69.8226 128.907C69.8226 123.384 74.3452 119.009 79.7537 117.891C85.9126 116.618 91.8006 114.166 97.0815 110.638C105.15 105.246 111.439 97.5835 115.152 88.6181C118.866 79.6527 119.838 69.7875 117.945 60.2699C116.051 50.7522 111.378 42.0098 104.517 35.1479C97.6548 28.2861 88.9123 23.6132 79.3947 21.72C69.8771 19.8268 60.0118 20.7985 51.0464 24.5121C42.081 28.2256 34.4181 34.5144 29.0268 42.583C25.4983 47.8639 23.0465 53.7519 21.7735 59.9108C20.6556 65.3194 16.2808 69.8419 10.758 69.8419L9.99997 69.8419Z" fill="#0F0F0F"/>
<ellipse cx="69.9404" cy="69.8415" rx="18.2869" ry="18.2869" transform="rotate(180 69.9404 69.8415)" fill="#0F0F0F"/>
</svg>
