<svg width="493" height="140" viewBox="0 0 493 140" fill="none" xmlns="http://www.w3.org/2000/svg">
<path d="M224.843 117.906C223.307 117.906 222.087 117.5 221.183 116.686C220.279 115.783 219.737 114.698 219.556 113.433L204.781 26.8145C204.691 26.5434 204.646 26.2271 204.646 25.8657C204.646 25.1427 204.917 24.5101 205.459 23.9679C206.091 23.3353 206.769 23.019 207.492 23.019H224.301C226.831 23.019 228.232 24.0131 228.503 26.0012L237.314 78.867L247.074 47.6897C248.068 45.2498 249.559 44.0298 251.547 44.0298H261.307C263.566 44.0298 265.057 45.2498 265.78 47.6897L275.54 78.867L284.351 26.0012C284.622 24.0131 286.023 23.019 288.553 23.019H305.362C306.175 23.019 306.853 23.3353 307.395 23.9679C308.028 24.5101 308.344 25.1427 308.344 25.8657L308.208 26.8145L293.433 113.433C293.252 114.698 292.665 115.783 291.671 116.686C290.767 117.5 289.592 117.906 288.146 117.906H275.269C273.823 117.906 272.693 117.545 271.88 116.822C271.067 116.099 270.479 115.286 270.118 114.382L256.427 75.6137L242.736 114.382C241.923 116.732 240.251 117.906 237.721 117.906H224.843Z" fill="#0F0F0F"/>
<path d="M325.702 117.906C324.798 117.906 323.985 117.59 323.262 116.957C322.629 116.235 322.313 115.421 322.313 114.518V26.4079C322.313 25.4138 322.629 24.6005 323.262 23.9679C323.985 23.3353 324.798 23.019 325.702 23.019H362.573C374.411 23.019 383.628 25.7301 390.225 31.1522C396.913 36.484 400.256 44.075 400.256 53.9252C400.256 60.251 398.765 65.628 395.783 70.056C392.801 74.4841 388.689 77.8729 383.448 80.2225L402.019 113.569C402.29 114.111 402.425 114.608 402.425 115.06C402.425 115.783 402.109 116.46 401.476 117.093C400.934 117.635 400.302 117.906 399.579 117.906H381.55C378.929 117.906 377.077 116.686 375.992 114.246L360.539 84.4247H346.713V114.518C346.713 115.512 346.351 116.325 345.628 116.957C344.996 117.59 344.182 117.906 343.188 117.906H325.702ZM362.301 65.1761C366.458 65.1761 369.621 64.1821 371.79 62.194C373.959 60.1155 375.043 57.2688 375.043 53.6541C375.043 50.0393 373.959 47.1927 371.79 45.1142C369.712 42.9454 366.549 41.8609 362.301 41.8609H346.713V65.1761H362.301Z" fill="#0F0F0F"/>
<path d="M440.118 117.906C439.214 117.906 438.4 117.59 437.678 116.957C437.045 116.235 436.729 115.421 436.729 114.518V85.3736L405.28 27.3567C405.009 26.5434 404.874 26.0464 404.874 25.8657C404.874 25.1427 405.145 24.5101 405.687 23.9679C406.32 23.3353 407.042 23.019 407.856 23.019H424.8C426.607 23.019 428.189 23.9679 429.544 25.8657L448.928 60.8384L468.448 25.8657C469.533 23.9679 471.114 23.019 473.193 23.019H490.137C490.95 23.019 491.628 23.3353 492.17 23.9679C492.712 24.5101 492.983 25.1427 492.983 25.8657C492.983 26.3175 492.893 26.8145 492.712 27.3567L461.264 85.3736V114.518C461.264 115.512 460.902 116.325 460.179 116.957C459.547 117.59 458.733 117.906 457.739 117.906H440.118Z" fill="#0F0F0F"/>
<path d="M9.99997 69.8419C4.47712 69.8419 -0.073479 65.3421 0.714834 59.8758C2.19609 49.6045 5.95526 39.7487 11.7672 31.0505C19.4394 19.5682 30.3442 10.6189 43.1027 5.33418C55.8611 0.0494709 69.9001 -1.33325 83.4444 1.36087C96.9886 4.055 109.43 10.705 119.195 20.4698C128.96 30.2347 135.61 42.6759 138.304 56.2202C140.998 69.7644 139.615 83.8035 134.33 96.5619C129.046 109.32 120.096 120.225 108.614 127.897C99.9158 133.709 90.06 137.468 79.7887 138.95C74.3224 139.738 69.8226 135.187 69.8226 129.665L69.8226 128.907C69.8226 123.384 74.3452 119.009 79.7537 117.891C85.9126 116.618 91.8006 114.166 97.0815 110.638C105.15 105.246 111.439 97.5835 115.152 88.6181C118.866 79.6527 119.838 69.7875 117.945 60.2699C116.051 50.7522 111.378 42.0098 104.517 35.1479C97.6548 28.2861 88.9123 23.6132 79.3947 21.72C69.8771 19.8268 60.0118 20.7985 51.0464 24.5121C42.081 28.2256 34.4181 34.5144 29.0268 42.583C25.4983 47.8639 23.0465 53.7519 21.7735 59.9108C20.6556 65.3194 16.2808 69.8419 10.758 69.8419L9.99997 69.8419Z" fill="#0F0F0F"/>
<ellipse cx="69.9404" cy="69.8415" rx="18.2869" ry="18.2869" transform="rotate(180 69.9404 69.8415)" fill="#0F0F0F"/>
</svg>
